<?xml version="1.0" standalone="no"?>
<!DOCTYPE svg PUBLIC "-//W3C//DTD SVG 1.1//EN" "http://www.w3.org/Graphics/SVG/1.1/DTD/svg11.dtd" >
<svg xmlns="http://www.w3.org/2000/svg">
<metadata>Generated by IcoMoon</metadata>
<defs>
<font id="icomoon" horiz-adv-x="1024">
<font-face units-per-em="1024" ascent="960" descent="-64" />
<missing-glyph horiz-adv-x="1024" />
<glyph unicode="&#x20;" horiz-adv-x="512" d="" />
<glyph unicode="&#xe900;" glyph-name="newarea" d="M100.594 638.032h823.466c38.008 0 63.343-25.339 63.343-63.343v-570.091c0-38.008-25.339-63.343-63.343-63.343h-823.466c-38.008 0-63.343 25.339-63.343 63.343v570.091c0 38.008 25.339 63.343 63.343 63.343zM100.594 574.685v-570.091h823.466v570.091h-823.466zM227.284 764.716h570.091c38.008 0 63.343-25.339 63.343-63.343v-63.343c0-38.008-25.339-63.343-63.343-63.343h-570.091c-38.008 0-63.343 25.339-63.343 63.343v63.343c0 38.008 25.339 63.343 63.343 63.343zM227.284 701.375v-63.343h570.091v63.343h-570.091zM353.968 257.968h-190.032v190.032h190.032v-190.032zM227.284 321.315h63.343v63.343h-63.343v-63.343zM607.343 257.968h-190.032v190.032h190.032v-190.032zM480.657 321.315h63.343v63.343h-63.343v-63.343zM607.343-58.748h-190.032v190.032h190.032v-190.032zM480.657 4.594h63.343v63.343h-63.343v-63.343zM860.716 257.968h-190.032v190.032h190.032v-190.032zM734.032 321.315h63.343v63.343h-63.343v-63.343zM353.968-58.748h-190.032v190.032h190.032v-190.032zM227.284 4.594h63.343v63.343h-63.343v-63.343zM860.716-58.748h-190.032v190.032h190.032v-190.032zM734.032 4.594h63.343v63.343h-63.343v-63.343z" />
<glyph unicode="&#xe901;" glyph-name="newroom" d="M832.821 63.014h-641.643v461.983l320.821 295.156 320.821-295.156v-461.983zM537.666 890.733c-12.832 6.417-32.082 6.417-44.915 0l-481.232-449.15c-12.832-12.832-19.249-32.082-6.417-44.915 6.417-6.417 19.249-12.832 25.666-12.832s12.832 0 19.249 6.417l76.997 70.58v-397.818c0-32.082 25.666-64.165 64.165-64.165h641.643c38.499 0 64.165 32.082 64.165 64.165v404.235l70.58-64.165c12.832-12.832 32.082-12.832 44.915 0s12.832 32.082 0 44.915l-474.815 442.733zM319.507 512.165c-38.499 0-64.165-25.666-64.165-64.165v-128.328c0-38.499 25.666-64.165 64.165-64.165h64.165v-64.165c0-25.666 12.832-44.915 38.499-57.748 6.417-6.417 19.249-6.417 25.666-6.417 12.832 0 32.082 6.417 44.915 12.832l128.328 115.496h83.414c38.499 0 64.165 25.666 64.165 64.165v128.328c0 38.499-25.666 64.165-64.165 64.165h-384.986zM704.493 319.672h-109.079l-147.577-128.328v128.328h-128.328v128.328h384.986v-128.328z" />
<glyph unicode="&#xe902;" glyph-name="face" d="M510.208 189.312c-142.165 0-257.792 115.627-257.792 257.792s115.627 257.792 257.792 257.792c142.165 0 257.792-115.627 257.792-257.792 0-142.123-115.627-257.792-257.792-257.792zM510.208 662.229c-118.613 0-215.125-96.512-215.125-215.125s96.512-215.125 215.125-215.125c118.613 0 215.125 96.512 215.125 215.125s-96.512 215.125-215.125 215.125zM638.763 405.333h-42.667c0-42.667-39.253-56.192-85.76-56.192s-85.803 13.525-85.803 56.192h-42.667c0-42.667 57.643-98.859 128.469-98.859s128.427 56.192 128.427 98.859zM321.792 746.667h-85.333c-11.776 0-23.125-9.557-23.125-21.333v-85.333c0-11.776 9.557-21.333 21.333-21.333s21.333 9.557 21.333 21.333v64h65.792c11.776 0 21.333 9.557 21.333 21.333s-9.557 21.333-21.333 21.333zM791.125 746.667h-85.333c-11.776 0-21.333-9.557-21.333-21.333s9.557-21.333 21.333-21.333h62.208v-64c0-11.776 9.557-21.333 21.333-21.333s21.333 9.557 21.333 21.333v85.333c0 11.776-7.765 21.333-19.541 21.333zM321.792 192h-65.792v64c0 11.776-9.557 21.333-21.333 21.333s-21.333-9.557-21.333-21.333v-85.333c0-11.776 11.349-21.333 23.125-21.333h85.333c11.776 0 21.333 9.557 21.333 21.333s-9.557 21.333-21.333 21.333zM789.333 277.333c-11.776 0-21.333-9.557-21.333-21.333v-64h-62.208c-11.776 0-21.333-9.557-21.333-21.333s9.557-21.333 21.333-21.333h85.333c11.776 0 19.541 9.557 19.541 21.333v85.333c0 11.776-9.557 21.333-21.333 21.333zM426.667 533.333c-23.552 0-42.667-19.115-42.667-42.667s19.115-42.667 42.667-42.667c23.552 0 42.667 19.115 42.667 42.667s-19.115 42.667-42.667 42.667zM597.333 533.333c-23.552 0-42.667-19.115-42.667-42.667s19.115-42.667 42.667-42.667c23.552 0 42.667 19.115 42.667 42.667s-19.115 42.667-42.667 42.667z" />
<glyph unicode="&#xe903;" glyph-name="subarea" d="M636.195 572.195v-62.098h310.471v-434.667h-558.862v186.293h-62.098v-186.293c0-37.262 24.836-62.098 62.098-62.098h558.862c37.262 0 62.098 24.836 62.098 62.098v434.667c0 37.262-24.836 62.098-62.098 62.098h-310.471zM77.333 882.667c-37.262 0-62.098-24.836-62.098-62.098v-558.862c0-37.262 24.836-62.098 62.098-62.098h248.374v62.098h-248.374v558.862h558.862v-248.374h62.098v248.374c0 37.262-24.836 62.098-62.098 62.098h-558.862zM822.471 13.333v186.293h-62.098v-186.293h-62.098v248.374h186.293v-248.374h-62.098zM822.471 572.195v-186.293h-62.098v186.293h-62.098v-248.374h186.293v248.374h-62.098zM574.098 13.333v186.293h-62.098v-186.293h-62.098v248.374h186.293v-248.374h-62.098zM263.626 882.667v-186.293h-62.098v186.293h-62.098v-248.374h186.293v248.374h-62.098zM512 882.667v-186.293h-62.098v186.293h-62.098v-248.374h186.293v248.374h-62.098zM263.626 199.626v186.293h-62.098v-186.293h-62.098v248.374h186.293v-248.374h-62.098z" />
<glyph unicode="&#xe904;" glyph-name="file" d="M230.4 217.6c-12.8-12.8-12.8-25.6-12.8-38.4s6.4-25.6 12.8-38.4c6.4-6.4 19.2-12.8 38.4-12.8 12.8 0 25.6 6.4 38.4 12.8l486.4 486.4c19.2 19.2 32 51.2 32 83.2s-12.8 57.6-38.4 83.2c-19.2 25.6-51.2 38.4-83.2 38.4 0 0 0 0 0 0-32 0-64-12.8-83.2-32l-422.4-422.4c0 0 0 0 0 0l-51.2-51.2c-70.4-70.4-76.8-198.4-6.4-268.8 38.4-38.4 83.2-57.6 134.4-57.6s102.4 25.6 134.4 57.6l364.8 364.8c12.8 12.8 32 12.8 44.8 0s12.8-32 0-44.8l-364.8-364.8c-44.8-44.8-115.2-76.8-179.2-76.8-6.4 0-6.4 0-12.8 0-64 0-121.6 25.6-166.4 70.4-96 102.4-89.6 268.8 6.4 364.8l288 288c0 0 0 0 0 0l185.6 185.6c32 38.4 76.8 51.2 128 51.2s96-19.2 128-51.2c32-32 51.2-83.2 51.2-128 0-51.2-19.2-96-51.2-128l-486.4-486.4c-19.2-25.6-44.8-38.4-76.8-38.4v0c-32 0-57.6 12.8-83.2 32-19.2 19.2-32 51.2-32 83.2s12.8 57.6 32 83.2l377.6 377.6c12.8 12.8 32 12.8 44.8 0s12.8-32 0-44.8l-377.6-377.6z" />
<glyph unicode="&#xe905;" glyph-name="cd" d="M480 0c-262.4 0-480 217.6-480 480s217.6 480 480 480 480-217.6 480-480-211.2-480-480-480zM480 896c-230.4 0-416-185.6-416-416s185.6-416 416-416 416 185.6 416 416-185.6 416-416 416zM480 384c-51.2 0-96 44.8-96 96s44.8 96 96 96 96-44.8 96-96-38.4-96-96-96zM480 512c-19.2 0-32-12.8-32-32s12.8-32 32-32 32 12.8 32 32-12.8 32-32 32zM640 512h64c-12.8 96-128 172.8-192 185.6v-64c64-6.4 115.2-57.6 128-121.6zM326.4 448h-64c12.8-96 57.6-172.8 185.6-192v64c-64 19.2-108.8 64-121.6 128zM768 512h64c-12.8 166.4-128 300.8-320 320v-64c128-19.2 236.8-121.6 256-256zM198.4 448h-70.4c12.8-166.4 128-300.8 320-320v64c-128 19.2-236.8 121.6-249.6 256z" />
<glyph unicode="&#xe906;" glyph-name="video" d="M960 832h-896c-32 0-64-25.6-64-64v-704c0-38.4 32-64 64-64h896c38.4 0 64 25.6 64 64v704c0 38.4-25.6 64-64 64zM768 768v-64h-128v64h128zM576 768v-64h-128v64h128zM384 768v-64h-128v64h128zM64 768h128v-64h-128v64zM64 64v64h128v-64h-128zM256 64v64h128v-64h-128zM448 64v64h128v-64h-128zM640 64v64h128v-64h-128zM960 64h-128v64h128v-64zM960 192h-896v448h896v-448zM960 704h-128v64h128v-64zM435.2 608c-12.8 6.4-19.2 6.4-32 0-12.8 0-19.2-12.8-19.2-25.6v-300.8c0-12.8 6.4-25.6 19.2-25.6 6.4 0 6.4-6.4 12.8-6.4s12.8 0 19.2 6.4l217.6 153.6c6.4 6.4 12.8 12.8 12.8 25.6s-6.4 19.2-12.8 25.6l-217.6 147.2zM448 339.2v185.6l134.4-89.6-134.4-96z" />
<glyph unicode="&#xe907;" glyph-name="room" d="M1008.576 473.792l-477.504 441.216c-12.288 11.328-31.168 11.392-43.456-0.064l-482.496-448c-12.992-12.032-13.76-32.256-1.664-45.248 6.272-6.784 14.848-10.176 23.424-10.176 7.808 0 15.616 2.816 21.76 8.576l79.36 73.664v-440.128c0-31.872 25.984-53.632 61.312-53.632h640c35.392 0 66.688 21.76 66.688 53.568v437.12l69.184-63.936c12.992-12.032 33.28-11.136 45.184 1.792 12.032 12.992 11.2 33.216-1.792 45.248zM448 64v320h128v-320h-128zM832 64h-192v384h-256v-384h-192v489.152l317.44 294.72 322.56-298.048v-485.824z" />
<glyph unicode="&#xe908;" glyph-name="addroom" d="M640 64v-64h-448c-38.4 0-64 25.6-64 57.6v435.2l-76.8-70.4c-6.4-6.4-12.8-6.4-19.2-6.4s-19.2 6.4-25.6 12.8c-12.8 12.8-12.8 32 0 44.8l480 448c12.8 12.8 32 12.8 44.8 0l480-441.6c12.8-12.8 12.8-32 0-44.8s-32-12.8-44.8 0l-70.4 64v-179.2h-64v236.8l-320 294.4-320-294.4v-492.8h192v384h256v-256h-64v192h-128v-320h192zM992 128h-96v96c0 19.2-12.8 32-32 32s-32-12.8-32-32v-96h-96c-19.2 0-32-12.8-32-32s12.8-32 32-32h96v-96c0-19.2 12.8-32 32-32s32 12.8 32 32v96h96c19.2 0 32 12.8 32 32s-12.8 32-32 32z" />
<glyph unicode="&#xe909;" glyph-name="ball" d="M944.32 535.872c0 0.064 0 0.064 0 0-53.376 206.976-240.704 360.128-464.32 360.128s-410.944-153.152-464.32-360.064c0 0 0 0 0 0-9.856-38.4-15.68-78.464-15.68-119.936 0-265.088 214.912-480 480-480s480 214.912 480 480c0 41.472-5.824 81.536-15.68 119.872zM893.376 446.528c-9.792 0.512-19.456 1.472-29.376 1.472-4.672 0-9.28-0.448-13.952-0.576 13.824 10.624 27.584 21.312 40.448 33.152 1.728-11.136 1.92-22.72 2.88-34.048zM752.768 458.816c-38.528 68.096-90.176 127.68-150.976 176.128 22.976 3.008 46.336 5.056 70.208 5.056 61.312 0 120-10.688 175.040-29.44 9.792-18.432 18.304-37.632 25.28-57.536-35.136-36.8-75.456-68.352-119.552-94.208zM695.744 429.824c-66.24-28.928-138.88-45.824-215.744-45.824-82.816 0-160.896 19.264-230.976 52.672 68.16 84.672 161.024 148.416 267.648 180.352 73.472-47.36 135.424-111.232 179.072-187.2zM815.616 660.16c-3.648 4.992-7.68 9.664-11.52 14.528 3.904-4.864 7.872-9.472 11.52-14.528zM480 832c122.88 0 232.384-54.4 308.48-139.456-37.696 7.36-76.608 11.456-116.48 11.456-50.56 0-99.648-6.272-146.624-17.92-79.872 45.824-170.624 74.88-268.096 80.192 64.448 41.28 140.672 65.728 222.72 65.728zM178.432 701.696c15.040 1.28 30.208 2.304 45.568 2.304 77.312 0 150.656-16.512 217.28-45.696-98.944-40.704-184.576-106.752-249.28-190.016-38.016 24.064-73.28 52.16-104.192 84.608 19.648 55.936 50.624 106.56 90.624 148.8zM69.504 480.576c26.432-24.256 55.040-46.208 85.44-65.6-27.264-44.096-49.28-91.712-64.64-142.336-16.576 44.8-26.304 92.864-26.304 143.36 0 22.016 2.176 43.52 5.504 64.576zM107.328 232.832c3.072-6.336 6.464-12.352 9.856-18.496-3.456 6.080-6.784 12.16-9.856 18.496zM135.936 184.384c11.84 72.128 38.272 139.2 75.52 198.912 80.896-40.32 171.904-63.296 268.544-63.296 4.352 0 8.576 0.64 12.992 0.704-90.624-70.272-161.152-165.376-200.64-275.456 18.944-9.664 38.656-17.984 59.136-24.704-89.024 29.056-164.16 87.808-215.552 163.84zM765.696 114.432c-74.624-70.72-175.040-114.432-285.696-114.432-44.864 0-88 7.36-128.576 20.544 59.776 169.024 201.088 298.688 376.064 344.384 25.92-63.296 40.512-132.416 40.512-204.928 0-15.36-1.024-30.528-2.304-45.568zM830.272 193.28c-3.52 65.024-17.984 126.848-40.384 184.768 24.32 3.392 48.896 5.952 74.112 5.952 9.984 0 19.712-0.96 29.504-1.472-5.696-69.184-27.648-133.696-63.232-189.248z" />
<glyph unicode="&#xe90a;" glyph-name="addball" d="M928 128h-96v96c0 19.2-12.8 32-32 32s-32-12.8-32-32v-96h-96c-19.2 0-32-12.8-32-32s12.8-32 32-32h96v-96c0-19.2 12.8-32 32-32s32 12.8 32 32v96h96c19.2 0 32 12.8 32 32s-12.8 32-32 32zM627.2 32c-44.8-19.2-96-25.6-147.2-25.6-44.8 0-89.6 6.4-128 19.2 57.6 166.4 198.4 300.8 377.6 345.6 6.4-25.6 19.2-44.8 25.6-70.4 12.8 0 19.2 0 32 0s25.6 0 38.4-6.4c-6.4 32-12.8 57.6-25.6 83.2 25.6 6.4 51.2 6.4 76.8 6.4 12.8 0 19.2 0 32 0 0-38.4-12.8-76.8-25.6-108.8 19.2-12.8 38.4-25.6 51.2-44.8 25.6 57.6 38.4 121.6 38.4 192 0 38.4-6.4 83.2-12.8 121.6 0 0 0 0 0 0-64 204.8-249.6 358.4-473.6 358.4s-409.6-153.6-467.2-364.8c0 0 0 0 0 0-6.4-38.4-12.8-76.8-12.8-115.2 0-262.4 217.6-480 480-480 70.4 0 134.4 12.8 192 38.4-19.2 12.8-38.4 32-51.2 51.2zM486.4 390.4c-83.2 0-160 19.2-230.4 51.2 64 83.2 160 147.2 268.8 179.2 70.4-44.8 134.4-108.8 179.2-185.6-70.4-32-140.8-44.8-217.6-44.8zM896 448c-12.8 0-19.2 0-32 0-6.4 0-6.4 0-12.8 0 12.8 12.8 25.6 19.2 38.4 32 6.4-6.4 6.4-19.2 6.4-32zM851.2 614.4c12.8-19.2 19.2-38.4 25.6-57.6-32-38.4-76.8-70.4-121.6-96-38.4 70.4-89.6 128-153.6 179.2 25.6 0 44.8 6.4 70.4 6.4 64 0 128-12.8 179.2-32zM486.4 838.4c121.6 0 230.4-57.6 307.2-140.8-38.4 6.4-76.8 12.8-115.2 12.8-51.2 0-102.4-6.4-147.2-19.2-83.2 44.8-172.8 76.8-268.8 76.8 64 44.8 140.8 70.4 224 70.4zM185.6 704c12.8 0 32 0 44.8 0 76.8 0 153.6-19.2 217.6-44.8-96-38.4-185.6-108.8-249.6-192-38.4 32-76.8 57.6-102.4 89.6 19.2 57.6 44.8 108.8 89.6 147.2zM70.4 422.4c0 19.2 0 44.8 6.4 64 25.6-25.6 57.6-44.8 83.2-64-25.6-44.8-51.2-89.6-64-140.8-19.2 38.4-25.6 89.6-25.6 140.8zM140.8 185.6c12.8 70.4 38.4 140.8 76.8 198.4 83.2-38.4 172.8-64 268.8-64 6.4 0 6.4 0 12.8 0-89.6-70.4-160-166.4-198.4-275.2-64 38.4-121.6 83.2-160 140.8z" />
<glyph unicode="&#xe90b;" glyph-name="link" d="M607.808 514.496c96.896-96.896 96.896-254.656-0.064-351.616l-146.112-146.048c-48.512-48.512-112.192-72.768-175.872-72.768-63.616 0-127.296 24.192-175.744 72.704l-10.432 10.432c-46.976 46.912-72.896 109.376-72.832 175.808 0 66.432 25.856 128.896 72.896 175.872l140.928 140.928c10.112 10.112 25.152 11.648 37.248 5.312 2.688-1.408 5.376-2.688 7.616-4.8 0.192-0.192 0.256-0.448 0.448-0.64 12.288-12.352 12.352-32.256 0.192-44.8v0 0c-0.128-0.128-0.128-0.256-0.256-0.384l-140.928-140.928c-34.944-34.88-54.144-81.28-54.144-130.624s19.2-95.68 54.080-130.56l10.432-10.432c72.128-72 189.248-71.936 261.12 0.064l146.112 146.048c34.88 34.88 54.144 81.28 54.144 130.624s-19.264 95.744-54.144 130.624l-10.432 10.496c-8.768 8.704-18.496 16.704-28.928 23.616-14.784 9.792-18.816 29.632-9.088 44.352 9.664 14.784 29.696 18.816 44.352 9.024 14.080-9.28 27.2-20.032 38.976-31.808l10.432-10.496zM924.544 831.296l-10.432 10.432c-93.888 93.952-257.728 94.016-351.616-0.064l-146.112-146.048c-96.96-96.96-97.024-254.72 0-351.744l10.368-10.304c11.968-11.968 25.088-22.656 38.976-31.872 5.376-3.584 11.584-5.312 17.6-5.312 10.368 0 20.544 5.056 26.688 14.336 9.728 14.72 5.696 34.624-9.088 44.352-10.24 6.848-19.968 14.848-28.992 23.808l-10.368 10.304c-71.936 72.064-71.936 189.184 0.064 261.184l146.112 146.048c69.76 69.824 191.36 69.824 261.12 0.064l10.432-10.432c72-72 71.936-189.12-0.064-261.12l-140.928-140.928c-12.48-12.48-12.48-32.768 0-45.248s32.768-12.48 45.248 0l140.928 140.928c96.96 96.96 97.024 254.72 0.064 351.616z" />
<glyph unicode="&#xe90c;" glyph-name="area" d="M192 448h-64v64h64v-64zM320 768h-64v-64h64v64zM192 512h-64v-64h64v64zM320 768h-64v-64h64v64zM192 512h-64v-64h64v64zM320 768h-64v-64h64v64zM192 512h-64v-64h64v64zM320 768h-64v-64h64v64zM192 384h-64v-64h64v64zM320 640h-64v-64h64v64zM192 384h-64v-64h64v64zM320 640h-64v-64h64v64zM192 256h-64v-64h64v64zM320 512h-64v-64h64v64zM192 256h-64v-64h64v64zM320 512h-64v-64h64v64zM320 384h-64v-64h64v64zM192 768h-64v-64h64v64zM320 384h-64v-64h64v64zM192 640h-64v-64h64v64zM320 256h-64v-64h64v64zM192 640h-64v-64h64v64zM320 256h-64v-64h64v64zM704 640h-64v-64h64v64zM832 640h-64v-64h64v64zM704 640h-64v-64h64v64zM832 640h-64v-64h64v64zM704 512h-64v-64h64v64zM832 512h-64v-64h64v64zM704 512h-64v-64h64v64zM832 512h-64v-64h64v64zM704 384h-64v-64h64v64zM832 384h-64v-64h64v64zM704 384h-64v-64h64v64zM832 384h-64v-64h64v64zM704 256h-64v-64h64v64zM832 256h-64v-64h64v64zM704 256h-64v-64h64v64zM832 256h-64v-64h64v64zM384 832h-320v-704h320v704zM384 896c35.328 0 64-28.672 64-64v-704c0-35.328-28.672-64-64-64h-320c-35.328 0-64 28.672-64 64v704c0 35.328 28.672 64 64 64h320zM896 704h-320v-576h320v576zM896 768c35.328 0 64-28.672 64-64v-576c0-35.328-28.672-64-64-64h-320c-35.328 0-64 28.672-64 64v576c0 35.328 28.672 64 64 64h320z" />
<glyph unicode="&#xe90d;" glyph-name="addarea" d="M992 192h-96v96c0 19.2-12.8 32-32 32s-32-12.8-32-32v-96h-96c-19.2 0-32-12.8-32-32s12.8-32 32-32h96v-96c0-19.2 12.8-32 32-32s32 12.8 32 32v96h96c19.2 0 32 12.8 32 32s-12.8 32-32 32zM198.4 710.4h64v-64h-64v64zM198.4 582.4h64v-64h-64v64zM198.4 454.4h64v-64h-64v64zM326.4 710.4h64v-64h-64v64zM198.4 326.4h64v-64h-64v64zM326.4 582.4h64v-64h-64v64zM326.4 198.4h64v-64h-64v64zM326.4 454.4h64v-64h-64v64zM326.4 326.4h64v-64h-64v64zM838.4 454.4h64v-64h-64v64zM710.4 326.4h64v-64h-64v64zM710.4 454.4h64v-64h-64v64zM710.4 582.4h64v-64h-64v64zM512 768c0 38.4-25.6 64-64 64h-320c-38.4 0-64-25.6-64-64v-704c0-38.4 25.6-64 64-64h320c38.4 0 64 25.6 64 64v704zM448 64h-320v704h320v-704zM198.4 198.4h64v-64h-64v64zM704 64h-64v576h320v-320h64v326.4c0 32-25.6 57.6-57.6 57.6h-320c-38.4 0-70.4-25.6-70.4-57.6v-576c0-38.4 32-70.4 70.4-70.4h57.6v64zM838.4 582.4h64v-64h-64v64z" />
<glyph unicode="&#xe90e;" glyph-name="alarm" d="M512 774.4c19.2 0 32 12.8 32 32v57.6c0 19.2-12.8 32-32 32s-32-12.8-32-32v-57.6c0-19.2 19.2-32 32-32zM275.2 736c12.8-12.8 32-12.8 44.8 0s12.8 32 0 44.8l-44.8 38.4c-12.8 12.8-32 12.8-44.8 0s-12.8-32 0-44.8l44.8-38.4zM748.8 736l44.8 44.8c12.8 12.8 12.8 32 0 44.8s-32 12.8-44.8 0l-44.8-44.8c-12.8-12.8-12.8-32 0-44.8s38.4-12.8 44.8 0zM211.2 57.6h147.2v268.8c0 19.2 12.8 32 32 32s32-12.8 32-32v-268.8h384c19.2 0 32 12.8 32 32v294.4c0 179.2-147.2 332.8-326.4 332.8s-326.4-147.2-326.4-332.8v-300.8c0-12.8 12.8-25.6 25.6-25.6zM928-6.4h-832c-19.2 0-32-12.8-32-32s12.8-32 32-32h838.4c19.2 0 32 12.8 32 32s-19.2 32-38.4 32z" />
<glyph unicode="&#xe90f;" glyph-name="updateLocation" d="M366.541 421.49h-271.529l67.882-67.882c9.051-9.051 9.051-27.153 0-36.204s-27.153-9.051-36.204 0l-117.663 117.663c-9.051 9.051-9.051 27.153 0 36.204l108.612 108.612c9.051 9.051 27.153 9.051 36.204 0s9.051-27.153 0-36.204l-67.882-67.882h271.529c18.102 0 27.153-9.051 27.153-27.153 4.525-13.576-9.051-27.153-18.102-27.153zM642.596 91.13c-9.051 9.051-27.153 9.051-36.204 0l-67.882-67.882v271.529c0 18.102-9.051 27.153-27.153 27.153s-27.153-9.051-27.153-27.153v-271.529l-67.882 67.882c-9.051 9.051-27.153 9.051-36.204 0s-9.051-27.153 0-36.204l113.137-113.137c9.051-9.051 27.153-9.051 36.204 0l113.137 113.137c9.051 9.051 9.051 27.153 0 36.204zM538.51 593.459v280.58l67.882-67.882c9.051-9.051 27.153-9.051 36.204 0s13.576 22.627 0 36.204l-113.137 113.137c-9.051 9.051-27.153 9.051-36.204 0l-113.137-113.137c-9.051-9.051-9.051-27.153 0-36.204s27.153-9.051 36.204 0l67.882 67.882v-271.529c0-18.102 9.051-27.153 27.153-27.153 13.576-4.525 27.153 9.051 27.153 18.102zM1018.211 466.745l-113.137 113.137c-9.051 9.051-27.153 9.051-36.204 0s-9.051-27.153 0-36.204l67.882-67.882h-271.529c-18.102 0-27.153-9.051-27.153-27.153s9.051-27.153 27.153-27.153h271.529l-67.882-67.882c-9.051-9.051-9.051-27.153 0-36.204s27.153-9.051 36.204 0l113.137 113.137c9.051 9.051 9.051 27.153 0 36.204z" />
<glyph unicode="&#xe910;" glyph-name="nolink" d="M770.24 325.504c-8.192 0-16.384 3.136-22.656 9.344-12.48 12.48-12.48 32.768 0 45.248l140.928 140.928c72 72 72.064 189.184 0.064 261.12l-10.432 10.432c-72 72-189.12 71.872-261.12-0.064l-140.928-140.864c-12.48-12.48-32.768-12.48-45.248 0s-12.48 32.768 0 45.248l140.928 140.928c97.024 97.024 254.72 97.024 351.616 0.064l10.432-10.432c96.96-96.96 96.896-254.656-0.064-351.616l-140.928-140.928c-6.208-6.272-14.4-9.408-22.592-9.408zM661.696 237.44c-1.344 2.432-2.56 4.864-4.48 7.040-1.088 1.088-2.624 1.536-3.904 2.368-11.008 8.192-25.536 8.384-36.736 0.64-1.536-0.96-3.392-1.664-4.736-3.008-0.192-0.192-0.256-0.384-0.384-0.576l-140.48-140.48c-71.936-72-189.056-72.064-261.12-0.064l-10.432 10.432c-72 72-71.936 189.12 0.064 261.12l140.928 140.928c12.48 12.48 12.48 32.768 0 45.248s-32.768 12.48-45.248 0l-140.992-140.928c-96.96-96.96-97.024-254.656-0.064-351.616l10.432-10.432c48.448-48.448 112.064-72.704 175.744-72.704s127.36 24.256 175.872 72.768l140.928 140.928c10.496 10.496 11.648 26.112 4.608 38.336zM521.344 470.656c12.48 12.48 12.48 32.768 0 45.248l-226.24 226.24c-12.48 12.48-32.768 12.48-45.248 0s-12.48-32.768 0-45.248l226.24-226.24c6.272-6.272 14.464-9.344 22.656-9.344s16.384 3.072 22.592 9.344zM838.144 153.856c12.48 12.48 12.48 32.768 0 45.248l-226.24 226.24c-12.48 12.48-32.768 12.48-45.248 0s-12.48-32.768 0-45.248l226.24-226.24c6.272-6.272 14.464-9.344 22.656-9.344s16.32 3.136 22.592 9.344z" />
<glyph unicode="&#xe911;" glyph-name="videos" d="M960 832h-640c-35.328 0-64-28.672-64-64v-148.544l-211.776 87.744c-9.856 4.032-21.12 3.008-30.016-2.944s-14.208-15.936-14.208-26.624v-416c0-10.688 5.312-20.608 14.144-26.56 5.312-3.648 11.584-5.44 17.856-5.44 4.032 0 8.128 0.768 12.032 2.368l211.968 85.888v-125.888c0-35.328 28.672-64 64-64h640c35.328 0 64 28.672 64 64v576c0 35.328-28.672 64-64 64zM64 309.12v320.576l192-79.552v-163.2l-192-77.824zM960 192h-640v576h640v-576zM896 640h-64v64h64v-64z" />
<glyph unicode="&#xe912;" glyph-name="org" d="M965.312 384h-69.312v99.968c0 17.728-8.96 28.032-26.688 28.032h-293.312v64h133.312c35.392 0 58.688 32.64 58.688 67.968v192c0 35.392-23.296 60.032-58.688 60.032h-320c-35.328 0-69.312-24.64-69.312-60.032v-192c0-35.328 33.984-67.968 69.312-67.968h122.688v-64h-282.688c-17.664 0-37.312-10.304-37.312-28.032v-99.968h-122.688c-35.328 0-69.312-24.64-69.312-60.032v-192c0-35.328 33.984-67.968 69.312-67.968h256c35.392 0 58.688 32.64 58.688 67.968v192c0 35.392-23.296 60.032-58.688 60.032h-69.312v64h576v-64h-122.688c-35.328 0-69.312-24.64-69.312-60.032v-192c0-35.328 33.984-67.968 69.312-67.968h256c35.392 0 58.688 32.64 58.688 67.968v192c0 35.392-23.296 60.032-58.688 60.032zM320 128h-256v64h256v-64zM320 320v-64h-256v64h256zM384 832h320v-64h-320v64zM384 640v64h320v-64h-320zM960 128h-256v64h256v-64zM960 256h-256v64h256v-64z" />
<glyph unicode="&#xe913;" glyph-name="channel" d="M538.688 680.96c88.192 0 160-71.808 160-160s-71.808-160-160-160-160 71.808-160 160 71.744 160 160 160zM538.688 744.96c-123.712 0-224-100.288-224-224s100.288-224 224-224 224 100.288 224 224-100.288 224-224 224v0zM615.424 463.232c12.544 16.768 19.264 36.672 19.264 57.728 0 17.664-14.336 32-32 32s-32-14.336-32-32c0-6.976-2.176-13.632-6.4-19.136-16.768-22.4-57.536-8.704-57.6 19.136 0 15.168 10.752 28.352 25.6 31.36 1.984 0.384 4.16 0.64 6.4 0.64 17.664 0 32 14.336 32 32s-14.336 32-32 32c-6.528 0-12.928-0.64-19.2-1.92-44.48-9.024-76.8-48.576-76.8-94.080 0-52.928 43.072-96 96-96 30.464 0 58.432 13.952 76.736 38.272zM969.856-3.84l-237.76 128c-4.672 2.496-9.856 3.84-15.168 3.84h-42.624c163.072 56.32 280.384 210.752 280.384 392.96 0 229.76-186.24 416-416 416s-416-186.24-416-416c0-182.208 117.312-336.64 280.384-392.96h-42.688c-5.312 0-10.496-1.344-15.168-3.84l-237.696-128c-12.864-6.976-19.456-21.76-15.808-36.032 3.52-14.144 16.256-24.128 30.976-24.128h832c14.656 0 27.456 9.984 30.976 24.192 3.648 14.208-2.944 29.056-15.808 35.968zM186.688 520.96c0 194.112 157.888 352 352 352s352-157.888 352-352-157.888-352-352-352-352 157.888-352 352zM249.6 0l118.784 64h340.416l118.848-64h-578.048z" />
<glyph unicode="&#xe914;" glyph-name="place" d="M960 832v-704h-896v704h896zM960 896h-896c-35.328 0-64-28.672-64-64v-704c0-35.328 28.672-64 64-64h896c35.328 0 64 28.672 64 64v704c0 35.328-28.672 64-64 64v0zM885.248 768h-757.248v-576h768v576h-10.752zM733.888 704l-25.344-11.136-4.864 11.136h30.208zM493.952 704l38.784-88.384-117.184-51.456-61.376 139.84h139.776zM192 595.712l47.808-108.8-47.808-20.928v129.728zM193.344 256l124.096 54.080 23.808-54.080h-147.904zM550.912 256l-58.112 132.352 117.184 51.456 80.768-183.808h-139.84zM832 411.84l-46.208 105.216 46.208 20.352v-125.568zM832 607.296l-130.56-57.344 129.088-293.952h-69.888l-117.824 268.16-234.368-102.912 72.576-165.248h-69.888l-61.248 139.52-58.624-25.792 0.384-0.96-99.648-43.072v70.336l132.096 58.048-109.76 249.92h69.888l98.496-224.192 234.432 102.976-53.312 121.216h69.888l41.92-95.488 156.352 68.672v-69.888z" />
<glyph unicode="&#xe915;" glyph-name="goleft" d="M928 830.336h-896c-17.664 0-32 14.336-32 32v0c0 17.664 14.336 32 32 32h896c17.664 0 32-14.336 32-32v0c0-17.664-14.336-32-32-32zM960 606.336v0c0 17.664-14.336 32-32 32h-896c-17.664 0-32-14.336-32-32v0c0-17.664 14.336-32 32-32h896c17.664 0 32 14.336 32 32zM928 254.336h-809.792l163.072 144.704c13.184 11.776 14.464 32 2.688 45.184-11.776 13.248-31.936 14.464-45.248 2.688l-225.28-200c-6.784-6.080-10.752-14.72-10.752-23.872s3.904-17.856 10.688-23.936l225.344-201.344c6.144-5.44 13.696-8.128 21.312-8.128 8.832 0 17.536 3.584 23.872 10.688 11.776 13.184 10.624 33.408-2.56 45.184l-162.048 144.768h808.704c17.664 0 32 14.336 32 32s-14.336 32.064-32 32.064z" />
<glyph unicode="&#xe916;" glyph-name="trail" d="M832 82.944v-82.944h-704v768h128v-32c0-17.664 16.96-32 34.688-32h384c17.664 0 29.312 14.336 29.312 32v32h128v-413.568l64 64v349.568c0 35.328-25.984 64-61.312 64h-130.688v32c0 17.664-11.648 32-29.312 32h-34.688v32c0 17.664-11.648 32-29.312 32h-256c-17.728 0-34.688-14.336-34.688-32v-32h-29.312c-17.728 0-34.688-14.336-34.688-32v-32h-125.312c-35.392 0-66.688-28.672-66.688-64v-768c0-35.328 31.296-64 66.688-64h704c35.328 0 61.312 28.672 61.312 64v146.944l-64-64zM320 832h64v64h192v-64h64v-64h-320v64zM704 320h-448v64h448v-64zM704 448h-448v64h448v-64zM256 256h320v-64h-320v64zM704.256 56.256c-8.192 0-16.384 3.136-22.656 9.344-12.48 12.48-12.48 32.768 0 45.248l286.4 286.4c12.48 12.48 32.768 12.48 45.248 0s12.48-32.768 0-45.248l-286.4-286.4c-6.272-6.208-14.4-9.344-22.592-9.344z" />
<glyph unicode="&#xe917;" glyph-name="exam" d="M256 384h448v-64h-448v64zM832 0h-704v768h128v-32c0-19.2 19.2-32 32-32h384c19.2 0 32 12.8 32 32v32h128v-416l64 64v352c0 38.4-25.6 64-64 64h-128v32c0 19.2-12.8 32-32 32h-32v32c0 19.2-12.8 32-32 32h-256c-12.8 0-32-12.8-32-32v-32h-32c-12.8 0-32-12.8-32-32v-32h-128c-32 0-64-25.6-64-64v-768c0-38.4 32-64 64-64h704c38.4 0 64 25.6 64 64v147.2l-64-64v-83.2zM320 832h64v64h192v-64h64v-64h-320v64zM256 256h320v-64h-320v64zM1011.2 396.8c-12.8 12.8-32 12.8-44.8 0l-288-288c-12.8-12.8-12.8-32 0-44.8 6.4-6.4 12.8-6.4 25.6-6.4s19.2 0 25.6 6.4l288 288c6.4 12.8 6.4 32-6.4 44.8zM448 640v-64h-64v-64h64v-64h64v64h64v64h-64v64z" />
<glyph unicode="&#xe918;" glyph-name="baseinfo" d="M448 640h-256v64h256v-64zM448 576h-256v-64h256v64zM832 448h-640v-64h640v64zM832 320h-640v-64h640v64zM832 192h-640v-64h640v64zM960 619.456v-651.456c0-17.664-14.336-32-32-32h-832c-17.664 0-32 14.336-32 32v960c0 17.664 14.336 32 32 32h520c8.448 0 16.512-3.328 22.528-9.28l312-308.544c6.016-6.016 9.472-14.208 9.472-22.72zM640 640h221.696l-221.696 219.264v-219.264zM896 576h-288c-17.664 0-32 14.336-32 32v288h-448v-896h768v576z" />
<glyph unicode="&#xe919;" glyph-name="visit" d="M998.4 832h-294.4v44.8c0 6.4-6.4 19.2-19.2 19.2h-345.6c-6.4 0-19.2-12.8-19.2-19.2v-44.8h-288c-19.2 0-32-12.8-32-25.6v-268.8c0-12.8 12.8-25.6 32-25.6h32v-505.6c0-38.4 38.4-70.4 76.8-70.4h748.8c38.4 0 70.4 32 70.4 70.4v505.6h38.4c19.2 0 25.6 12.8 25.6 25.6v268.8c0 12.8-6.4 25.6-25.6 25.6zM896 0h-768v512h64v-51.2c0-6.4 12.8-12.8 19.2-12.8h38.4c6.4 0 6.4 6.4 6.4 12.8v51.2h512v-51.2c0-6.4 6.4-12.8 12.8-12.8h38.4c12.8 0 12.8 6.4 12.8 12.8v51.2h64v-512zM960 576h-128v51.2c0 6.4 0 12.8-6.4 12.8h-38.4c-12.8 0-19.2-6.4-19.2-12.8v-51.2h-512v51.2c0 6.4 0 12.8-6.4 12.8h-38.4c-6.4 0-19.2-6.4-19.2-12.8v-51.2h-128v192h896v-192zM576 448h-128v-128h-128v-128h128v-128h128v128h128v128h-128z" />
<glyph unicode="&#xe91a;" glyph-name="talk1" d="M738.688 512c-159.040 0-288-128.96-288-288s128.96-288 288-288 288 128.96 288 288-128.96 288-288 288zM738.688 0c-123.52 0-224 100.48-224 224s100.48 224 224 224 224-100.48 224-224-100.48-224-224-224zM768 384h-64v-192h192v64h-128zM192 448h192v-64h-192v64zM192 576h320v-64h-320v64zM192 704h640v-64h-640v64zM192.704 128v128h-128.704v578.688h896v-322.688h64v322.688c0 35.328-28.672 64-64 64h-896c-35.328 0-64-28.672-64-64v-578.688c0-35.328 28.672-64 64-64h64.704v-64c0-25.024 14.592-47.744 37.312-58.176 8.512-3.904 17.6-5.824 26.688-5.824 15.040 0 29.952 5.312 41.792 15.488l130.624 112.512h18.88v64h-42.624l-148.672-128z" />
<glyph unicode="&#xe91b;" glyph-name="search1" d="M388.288 256h-132.288v64h142.848c-5.568-20.672-8.96-41.984-10.56-64zM532.864 512h-276.864v-64h209.088c19.904 24.064 42.112 46.080 67.776 64zM896 896v-369.92c0 11.776-64 21.248-64 28.736v341.184h-448v-192h-192v192h-64v-896h350.016c23.68-25.472 51.2-46.656 81.6-64h-428.928c-35.392 0-66.688 28.672-66.688 64v896c0 35.328 31.296 64 66.688 64h704c35.328 0 61.312-28.672 61.312-64zM322.688 896h-64v-128h64v128zM982.848-20.352l-128.128 98.304c-43.008-36.8-98.048-59.904-158.976-59.904-135.552 0-245.888 110.336-245.888 245.888 0 135.488 110.336 245.76 245.888 245.76s245.824-110.272 245.824-245.76c0-51.456-16-99.2-43.2-138.752l123.52-94.72-39.040-50.816zM877.568 263.872c0 100.224-81.536 181.76-181.824 181.76s-181.888-81.536-181.888-181.76c0-100.288 81.536-181.888 181.888-181.888 100.224 0 181.824 81.6 181.824 181.888z" />
<glyph unicode="&#xe91c;" glyph-name="accompany" d="M832 0h-704v768h128v-32c0-19.2 19.2-32 32-32h384c19.2 0 32 12.8 32 32v32h128v-416l64 64v352c0 38.4-25.6 64-64 64h-128v32c0 19.2-12.8 32-32 32h-32v32c0 19.2-12.8 32-32 32h-256c-12.8 0-32-12.8-32-32v-32h-32c-12.8 0-32-12.8-32-32v-32h-128c-32 0-64-25.6-64-64v-768c0-38.4 32-64 64-64h704c38.4 0 64 25.6 64 64v147.2l-64-64v-83.2zM320 832h64v64h192v-64h64v-64h-320v64zM256 192h320v-64h-320v64zM1011.2 396.8c-12.8 12.8-32 12.8-44.8 0l-288-288c-12.8-12.8-12.8-32 0-44.8 6.4-6.4 12.8-6.4 25.6-6.4s19.2 0 25.6 6.4l288 288c6.4 12.8 6.4 32-6.4 44.8zM492.8 403.2c25.6 19.2 44.8 51.2 44.8 89.6 0 57.6-51.2 108.8-108.8 108.8s-108.8-44.8-108.8-108.8c0-32 19.2-64 44.8-83.2-64-12.8-102.4-57.6-102.4-153.6h57.6c0 64 44.8 102.4 102.4 102.4s102.4-38.4 102.4-102.4h51.2c0 89.6-32 128-83.2 147.2zM428.8 556.8c32 0 64-25.6 64-64 0-32-25.6-64-64-64-32 0-64 25.6-64 64 0 32 32 64 64 64z" />
<glyph unicode="&#xe91d;" glyph-name="agency" d="M1024 768c0 70.72-57.28 128-128 128-56.384 0-103.744-36.736-120.768-87.36-74.112 54.72-165.376 87.36-264.576 87.36-77.504 0-149.632-20.864-213.184-55.68-23.040 33.6-61.632 55.68-105.472 55.68-70.72 0-128-57.28-128-128 0-43.84 22.080-82.432 55.68-105.472-34.816-63.552-55.68-135.68-55.68-213.184 0-230.4 174.592-419.52 398.592-443.52 21.248-41.28 63.808-69.824 113.408-69.824 65.152 0 118.272 48.832 126.336 111.744 150.336 71.872 254.976 223.872 254.976 401.6 0 69.12-16.704 133.952-44.8 192.32 62.848 8.192 111.488 61.312 111.488 126.336zM320 768c0 3.648-0.768 7.104-1.088 10.752 56.512 33.216 121.6 53.248 191.744 53.248 103.104 0 196.608-41.152 265.472-107.712 3.264-8.896 8.832-16.32 13.888-24.128l-146.88-112.64c-34.304 32.32-80.256 52.48-131.136 52.48-41.664 0-80-13.632-111.488-36.224l0.768 1.152-116.864 74.816c21.888 22.976 35.584 53.952 35.584 88.256zM512 320c-70.592 0-128 57.408-128 128s57.408 128 128 128c70.592 0 128-57.408 128-128s-57.408-128-128-128zM192 832c35.264 0 64-28.736 64-64s-28.736-64-64-64-64 28.736-64 64 28.736 64 64 64zM448.832 72.192c-181.632 29.696-320.832 187.264-320.832 377.152 0 70.080 19.776 135.232 52.8 191.808 3.776-0.384 7.36-1.152 11.2-1.152 10.304 0 20.224 1.536 29.824 3.84l133.44-85.44c-22.016-31.296-35.264-69.248-35.264-110.4 0-102.656 80.768-185.792 182.144-190.976l16.832-79.040c-39.296-19.968-67.136-59.264-70.144-105.792zM576 0c-35.264 0-64 28.736-64 64s28.736 64 64 64 64-28.736 64-64-28.736-64-64-64zM693.504 114.624c-18.88 43.776-61.696 74.24-111.872 76.544l-15.68 73.472c79.616 23.424 138.048 96.192 138.048 183.36 0 32-8.576 61.76-22.464 88.32l152.256 116.736c37.376-59.072 59.52-128.704 59.52-203.648 0-144.64-81.152-269.76-199.808-334.784zM896 704c-35.264 0-64 28.736-64 64s28.736 64 64 64 64-28.736 64-64-28.736-64-64-64z" />
<glyph unicode="&#xe91e;" glyph-name="department" d="M390.656 835.968h-64v-64h64v64zM581.312 835.968h-64v-64h64v64zM774.016 835.968h-64v-64h64v64zM390.656 643.968h-64v-64h64v64zM581.312 643.968h-64v-64h64v64zM774.016 643.968h-64v-64h64v64zM390.656 451.968h-64v-64h64v64zM581.312 451.968h-64v-64h64v64zM774.016 451.968h-64v-64h64v64zM965.312 32c0-17.664-14.336-32-32-32h-768c-17.664 0-32 14.336-32 32s14.336 32 32 32h26.688v835.968c0 35.392 33.984 60.032 69.312 60.032h576c35.392 0 58.688-24.64 58.688-60.032v-835.968h37.312c17.664 0 32-14.336 32-32zM640 64v128h-192v-128h192zM832 896h-576v-832h128v192h320v-192h128v832z" />
<glyph unicode="&#xe91f;" glyph-name="person" d="M626.176 486.4c46.976 35.008 77.824 90.496 77.824 153.6 0 106.048-85.952 192-192 192s-192-85.952-192-192c0-63.104 30.848-118.592 77.824-153.6-120.256-55.232-205.824-194.624-205.824-358.4h640c0 163.776-85.568 303.168-205.824 358.4z" />
<glyph unicode="&#xe920;" glyph-name="medical" d="M832 0h-704v768h128v-32c0-19.2 19.2-32 32-32h384c19.2 0 32 12.8 32 32v32h128v-416l64 64v352c0 38.4-25.6 64-64 64h-128v32c0 19.2-12.8 32-32 32h-32v32c0 19.2-12.8 32-32 32h-256c-12.8 0-32-12.8-32-32v-32h-32c-12.8 0-32-12.8-32-32v-32h-128c-32 0-64-25.6-64-64v-768c0-38.4 32-64 64-64h704c38.4 0 64 25.6 64 64v147.2l-64-64v-83.2zM320 832h64v64h192v-64h64v-64h-320v64zM256 192h320v-64h-320v64zM1011.2 396.8c-12.8 12.8-32 12.8-44.8 0l-288-288c-12.8-12.8-12.8-32 0-44.8 6.4-6.4 12.8-6.4 25.6-6.4s19.2 0 25.6 6.4l288 288c6.4 12.8 6.4 32-6.4 44.8zM659.2 435.2c38.4 38.4 32 96 0 134.4s-96 38.4-134.4 0l-70.4-64-44.8-51.2-76.8-70.4c-38.4-38.4-32-96 0-134.4 38.4-38.4 96-38.4 134.4 0l76.8 70.4 115.2 115.2zM428.8 294.4c-12.8-12.8-32-12.8-44.8 0s-12.8 32 0 44.8l70.4 70.4 44.8-44.8-70.4-70.4zM499.2 454.4l70.4 70.4c12.8 12.8 32 12.8 44.8 0s12.8-32 0-44.8l-70.4-70.4-44.8 44.8z" />
<glyph unicode="&#xe921;" glyph-name="dining" d="M704 384h-57.6c0 0 0 6.4 0 6.4 0 83.2-64 160-147.2 172.8v38.4c0 12.8-12.8 25.6-25.6 25.6v0c-12.8 0-25.6-12.8-25.6-25.6v-38.4c-76.8-12.8-140.8-89.6-140.8-172.8 0 0 0-6.4 0-6.4h-51.2v-64h448v64zM364.8 384c0 0 0 6.4 0 6.4 0 64 51.2 115.2 115.2 115.2s115.2-57.6 115.2-121.6c0 0 0-6.4 0-6.4h-230.4zM832 0h-704v768h128v-32c0-19.2 19.2-32 32-32h384c19.2 0 32 12.8 32 32v32h128v-416l64 64v352c0 38.4-25.6 64-64 64h-128v32c0 19.2-12.8 32-32 32h-32v32c0 19.2-12.8 32-32 32h-256c-12.8 0-32-12.8-32-32v-32h-32c-12.8 0-32-12.8-32-32v-32h-128c-32 0-64-25.6-64-64v-768c0-38.4 32-64 64-64h704c38.4 0 64 25.6 64 64v147.2l-64-64v-83.2zM320 832h64v64h192v-64h64v-64h-320v64zM256 256h320v-64h-320v64zM1011.2 396.8c-12.8 12.8-32 12.8-44.8 0l-288-288c-12.8-12.8-12.8-32 0-44.8 6.4-6.4 12.8-6.4 25.6-6.4s19.2 0 25.6 6.4l288 288c6.4 12.8 6.4 32-6.4 44.8z" />
<glyph unicode="&#xe922;" glyph-name="breceive" d="M985.6 345.6l-6.4 12.8c-51.2 64-102.4 44.8-147.2 25.6l-211.2-115.2c-12.8 25.6-38.4 51.2-70.4 64-6.4 0-134.4 83.2-204.8 102.4-83.2 32-147.2-12.8-147.2-12.8l-115.2-57.6c-19.2-6.4-25.6-25.6-12.8-44.8 6.4-12.8 25.6-19.2 44.8-12.8l115.2 57.6c0 0 44.8 25.6 96 6.4 64-19.2 192-102.4 192-102.4 19.2-12.8 32-19.2 44.8-25.6 6.4-6.4 6.4-12.8 0-12.8-6.4-6.4-12.8-12.8-25.6-6.4 0 0-12.8 0-25.6 6.4-25.6 6.4-57.6 19.2-76.8 25.6-25.6 6.4-38.4 12.8-38.4 12.8-19.2 6.4-38.4-6.4-38.4-25.6s6.4-32 25.6-38.4c0 0 19.2-6.4 38.4-12.8 25.6-6.4 70.4-25.6 89.6-32 6.4 0 12.8 0 25.6 0 19.2 0 32 0 51.2 12.8 0 0 12.8 6.4 12.8 6.4l256 140.8c32 19.2 44.8 12.8 57.6 0l12.8-12.8c19.2-32-38.4-64-70.4-83.2l-243.2-153.6c0 0-6.4-6.4-6.4-6.4-51.2-32-83.2-19.2-108.8-6.4-6.4 0-12.8 6.4-12.8 6.4-6.4 0-12.8 6.4-32 6.4-25.6 6.4-102.4 25.6-172.8 38.4-108.8 12.8-217.6 25.6-217.6 25.6-32-6.4-38.4-51.2-6.4-64 0 0 217.6-25.6 230.4-25.6 32 0 102.4-25.6 147.2-38.4 19.2-6.4 32-6.4 32-6.4s6.4 0 6.4 0c12.8-6.4 38.4-12.8 70.4-12.8 19.2 0 38.4 0 64 12.8 6.4 0 12.8 0 19.2 0l268.8 166.4c83.2 57.6 115.2 115.2 89.6 179.2zM384 512v320h448v-384h64v384c0 38.4-25.6 64-64 64h-448c-32 0-64-32-64-64v-320h64zM768 704h-320c-19.2 0-32 12.8-32 32s12.8 32 32 32h320c19.2 0 32-12.8 32-32s-12.8-32-32-32zM768 576h-320c-19.2 0-32 12.8-32 32s12.8 32 32 32h320c19.2 0 32-12.8 32-32s-12.8-32-32-32zM768 448h-192c-19.2 0-32 12.8-32 32s12.8 32 32 32h192c19.2 0 32-12.8 32-32s-12.8-32-32-32z" />
<glyph unicode="&#xe923;" glyph-name="connectFail" d="M460.8 448l-172.8-172.8c-12.8-12.8-12.8-32 0-44.8v0 0c12.8-12.8 32-12.8 44.8 0v0l179.2 166.4 172.8-172.8c12.8-12.8 32-12.8 44.8 0v0 0c12.8 12.8 12.8 32 0 44.8v0l-166.4 179.2 172.8 172.8c12.8 12.8 12.8 32 0 44.8v0 0c-12.8 12.8-32 12.8-44.8 0v0l-179.2-172.8-172.8 172.8c-12.8 12.8-32 12.8-44.8 0v0 0c-12.8-12.8-12.8-32 0-44.8v0l166.4-172.8zM512 960c281.6 0 512-230.4 512-512s-230.4-512-512-512-512 230.4-512 512 230.4 512 512 512z" />
<glyph unicode="&#xe924;" glyph-name="connectSuccess" d="M512 960c281.6 0 512-230.4 512-512s-230.4-512-512-512-512 230.4-512 512 230.4 512 512 512zM768 633.6l-352-326.4-166.4 166.4c-12.8 12.8-32 12.8-44.8 0s-12.8-32-6.4-44.8l192-192c6.4-6.4 12.8-6.4 25.6-6.4 6.4 0 19.2 0 25.6 6.4l371.2 345.6c12.8 12.8 12.8 32 0 44.8s-32 12.8-44.8 6.4z" />
<glyph unicode="&#xe925;" glyph-name="server" d="M965.312 384h-69.312v99.968c0 17.728-8.96 28.032-26.688 28.032h-293.312v64h133.312c35.392 0 58.688 32.64 58.688 67.968v192c0 35.392-23.296 60.032-58.688 60.032h-320c-35.328 0-69.312-24.64-69.312-60.032v-192c0-35.328 33.984-67.968 69.312-67.968h122.688v-64h-282.688c-17.664 0-37.312-10.304-37.312-28.032v-99.968h-122.688c-35.328 0-69.312-24.64-69.312-60.032v-192c0-35.328 33.984-67.968 69.312-67.968h256c35.392 0 58.688 32.64 58.688 67.968v192c0 35.392-23.296 60.032-58.688 60.032h-69.312v64h576v-64h-122.688c-35.328 0-69.312-24.64-69.312-60.032v-192c0-35.328 33.984-67.968 69.312-67.968h256c35.392 0 58.688 32.64 58.688 67.968v192c0 35.392-23.296 60.032-58.688 60.032zM320 128h-256v64h256v-64zM320 320v-64h-256v64h256zM384 832h320v-64h-320v64zM384 640v64h320v-64h-320zM960 128h-256v64h256v-64zM960 256h-256v64h256v-64z" />
<glyph unicode="&#xe926;" glyph-name="man1" d="M416 704v0c-194.404 0-352-157.596-352-352v0c0-194.404 157.596-352 352-352s352 157.596 352 352c0 194.404-157.596 352-352 352zM416 640c159.058 0 288-128.942 288-288s-128.942-288-288-288c-159.058 0-288 128.942-288 288v0c0 159.058 128.942 288 288 288v0zM768 768h64v-64h-64v64zM640 640h64v-64h-64v64zM704 704h64v-64h-64v64zM896 896h64v-64h-64v64zM832 896h64v-64h-64v64zM768 896h64v-64h-64v64zM896 832h64v-64h-64v64zM896 768h64v-64h-64v64zM896 704h64v-64h-64v64zM704 896h64v-64h-64v64zM832 832h64v-64h-64v64z" />
<glyph unicode="&#xe927;" glyph-name="talk" d="M704 640h-512v64h512v-64zM576 576h-384v-64h384v64zM1024 708.928v-531.712c0-32.576-25.984-49.216-61.312-49.216h-194.688v-68.928c0-23.104-11.584-42.816-34.368-52.48-8.512-3.584-15.296-4.16-24.32-4.16-15.040 0-29.568 7.36-41.408 16.768l-130.368 108.8h-153.536v64h177.28l142.72-132.928v132.928h256v512h-64v-384c0-35.328-25.984-64-61.312-64h-466.88l-130.752-112.512c-11.904-10.176-26.816-15.488-41.856-15.488-9.024 0-19.648 1.92-28.16 5.824-22.784 10.432-39.040 33.152-39.040 58.176v64h-61.312c-35.392 0-66.688 28.672-66.688 64v514.688c0 35.328 31.296 61.312 66.688 61.312h768c35.328 0 61.312-25.984 61.312-61.312v-66.496l64.192-0.192c35.264-0.064 63.808-26.496 63.808-59.072zM832 832h-768v-512h128v-128l152 128h488v512z" />
<glyph unicode="&#xe928;" glyph-name="woman1" d="M480 960v0c-194.404 0-352-157.596-352-352v0c0-194.404 157.596-352 352-352s352 157.596 352 352c0 194.404-157.596 352-352 352zM480 896c159.058 0 288-128.942 288-288s-128.942-288-288-288c-159.058 0-288 128.942-288 288v0c0 159.058 128.942 288 288 288v0zM480 320c17.673 0 32-14.327 32-32v0-320c0-17.673-14.327-32-32-32s-32 14.327-32 32v0 320c0 17.673 14.327 32 32 32v0zM288 192v0c-17.673 0-32-14.327-32-32s14.327-32 32-32h384c17.673 0 32 14.327 32 32s-14.327 32-32 32h-384z" />
<glyph unicode="&#xe929;" glyph-name="build1" d="M320 576h-64v64h64v-64zM448 640h-64v-64h64v64zM576 640h-64v-64h64v64zM704 640h-64v-64h64v64zM832 640h-64v-64h64v64zM320 512h-64v-64h64v64zM448 512h-64v-64h64v64zM576 512h-64v-64h64v64zM704 512h-64v-64h64v64zM832 512h-64v-64h64v64zM320 384h-64v-64h64v64zM448 384h-64v-64h64v64zM576 384h-64v-64h64v64zM704 384h-64v-64h64v64zM832 384h-64v-64h64v64zM1024 96c0-17.664-14.336-32-32-32h-896c-17.664 0-32 14.336-32 32s14.336 32 32 32h32v576c0 35.328 28.672 64 64 64h128v64c0 35.328 38.656 64 73.984 64h310.016c35.328 0 64-28.672 64-64v-64h128c35.328 0 64-28.672 64-64v-576h32c17.664 0 32-14.336 32-32zM640 128v64h-192v-64h192zM896 128v576h-192v128h-320v-128h-192v-576h192v128h320v-128h192z" />
<glyph unicode="&#xe92a;" glyph-name="root" d="M1024 768c0 70.72-57.28 128-128 128-56.384 0-103.744-36.736-120.768-87.36-74.112 54.72-165.376 87.36-264.576 87.36-77.504 0-149.632-20.864-213.184-55.68-23.040 33.6-61.632 55.68-105.472 55.68-70.72 0-128-57.28-128-128 0-43.84 22.080-82.432 55.68-105.472-34.816-63.552-55.68-135.68-55.68-213.184 0-230.4 174.592-419.52 398.592-443.52 21.248-41.28 63.808-69.824 113.408-69.824 65.152 0 118.272 48.832 126.336 111.744 150.336 71.872 254.976 223.872 254.976 401.6 0 69.12-16.704 133.952-44.8 192.32 62.848 8.192 111.488 61.312 111.488 126.336zM320 768c0 3.648-0.768 7.104-1.088 10.752 56.512 33.216 121.6 53.248 191.744 53.248 103.104 0 196.608-41.152 265.472-107.712 3.264-8.896 8.832-16.32 13.888-24.128l-146.88-112.64c-34.304 32.32-80.256 52.48-131.136 52.48-41.664 0-80-13.632-111.488-36.224l0.768 1.152-116.864 74.816c21.888 22.976 35.584 53.952 35.584 88.256zM512 320c-70.592 0-128 57.408-128 128s57.408 128 128 128c70.592 0 128-57.408 128-128s-57.408-128-128-128zM192 832c35.264 0 64-28.736 64-64s-28.736-64-64-64-64 28.736-64 64 28.736 64 64 64zM448.832 72.192c-181.632 29.696-320.832 187.264-320.832 377.152 0 70.080 19.776 135.232 52.8 191.808 3.776-0.384 7.36-1.152 11.2-1.152 10.304 0 20.224 1.536 29.824 3.84l133.44-85.44c-22.016-31.296-35.264-69.248-35.264-110.4 0-102.656 80.768-185.792 182.144-190.976l16.832-79.040c-39.296-19.968-67.136-59.264-70.144-105.792zM576 0c-35.264 0-64 28.736-64 64s28.736 64 64 64 64-28.736 64-64-28.736-64-64-64zM693.504 114.624c-18.88 43.776-61.696 74.24-111.872 76.544l-15.68 73.472c79.616 23.424 138.048 96.192 138.048 183.36 0 32-8.576 61.76-22.464 88.32l152.256 116.736c37.376-59.072 59.52-128.704 59.52-203.648 0-144.64-81.152-269.76-199.808-334.784zM896 704c-35.264 0-64 28.736-64 64s28.736 64 64 64 64-28.736 64-64-28.736-64-64-64z" />
<glyph unicode="&#xe92b;" glyph-name="video1" d="M962.688 832h-640c-35.392 0-66.688-28.672-66.688-64v-148.544l-210.432 87.744c-9.856 4.032-21.76 3.008-30.72-2.944-8.832-5.952-14.848-15.936-14.848-26.624v-416c0-10.688 6.592-20.608 15.488-26.56 5.312-3.648 12.288-5.44 18.56-5.44 4.032 0 7.168 0.768 11.008 2.368l210.944 85.888v-125.888c0-35.328 31.296-64 66.688-64h317.312v192h384v448c0 35.328-25.984 64-61.312 64zM704 256h64v-64h-64v64zM832 256h64v-64h-64v64zM960 256h64v-64h-64v64z" />
<glyph unicode="&#xe92c;" glyph-name="build2" d="M640 640h-192v64h192v-64zM453.312 579.968h-64v-64h64v64zM581.312 579.968h-64v-64h64v64zM709.312 579.968h-64v-64h64v64zM453.312 451.968h-64v-64h64v64zM581.312 451.968h-64v-64h64v64zM709.312 451.968h-64v-64h64v64zM453.312 323.968h-64v-64h64v64zM581.312 323.968h-64v-64h64v64zM709.312 323.968h-64v-64h64v64zM453.312 195.968h-64v-64h64v64zM581.312 195.968h-64v-64h64v64zM709.312 195.968h-64v-64h64v64zM965.312 32c0-17.664-14.336-32-32-32h-768c-17.664 0-32 14.336-32 32s14.336 32 32 32h26.688v100.032c0 17.664 19.648 27.968 37.312 27.968h26.688v483.968c0 17.728 19.648 28.032 37.312 28.032h26.688v99.968c0 17.728 19.648 28.032 37.312 28.032h90.688v99.968c0 17.728 19.648 28.032 37.312 28.032h128c17.728 0 26.688-10.304 26.688-28.032v-99.968h101.312c17.728 0 26.688-10.304 26.688-28.032v-99.968h37.312c17.728 0 26.688-10.304 26.688-28.032v-483.968h37.312c17.728 0 26.688-10.304 26.688-28.032v-99.968h37.312c17.664 0 32-14.336 32-32zM832 64v64h-64v512h-64v128h-128v128h-64v-128h-128v-128h-64v-512h-64v-64h576z" />
<glyph unicode="&#xe92d;" glyph-name="video2" d="M640 704c-106.048 0-192-85.952-192-192s85.952-192 192-192 192 85.952 192 192-85.952 192-192 192zM704 448h-128v128h128v-128zM962.688 832h-640c-35.392 0-66.688-28.672-66.688-64v-148.544l-210.432 87.744c-9.856 4.032-21.76 3.008-30.72-2.944-8.832-5.952-14.848-15.936-14.848-26.624v-416c0-10.688 6.592-20.608 15.488-26.56 5.312-3.648 12.288-5.44 18.56-5.44 4.032 0 7.168 0.768 11.008 2.368l210.944 85.888v-125.888c0-35.328 31.296-64 66.688-64h640c35.328 0 61.312 28.672 61.312 64v576c0 35.328-25.984 64-61.312 64zM640 256c-141.184 0-256 114.816-256 256s114.816 256 256 256 256-114.816 256-256c0-141.184-114.816-256-256-256z" />
<glyph unicode="&#xe92e;" glyph-name="mechanism" d="M1024 768c0 70.72-57.28 128-128 128-56.384 0-103.744-36.736-120.768-87.36-74.112 54.72-165.376 87.36-264.576 87.36-77.504 0-149.632-20.864-213.184-55.68-23.040 33.6-61.632 55.68-105.472 55.68-70.72 0-128-57.28-128-128 0-43.84 22.080-82.432 55.68-105.472-34.816-63.552-55.68-135.68-55.68-213.184 0-230.4 174.592-419.52 398.592-443.52 21.248-41.28 63.808-69.824 113.408-69.824 65.152 0 118.272 48.832 126.336 111.744 150.336 71.872 254.976 223.872 254.976 401.6 0 69.12-16.704 133.952-44.8 192.32 62.848 8.192 111.488 61.312 111.488 126.336zM320 768c0 3.648-0.768 7.104-1.088 10.752 56.512 33.216 121.6 53.248 191.744 53.248 103.104 0 196.608-41.152 265.472-107.712 3.264-8.896 8.832-16.32 13.888-24.128l-146.88-112.64c-34.304 32.32-80.256 52.48-131.136 52.48-41.664 0-80-13.632-111.488-36.224l0.768 1.152-116.864 74.816c21.888 22.976 35.584 53.952 35.584 88.256zM512 320c-70.592 0-128 57.408-128 128s57.408 128 128 128c70.592 0 128-57.408 128-128s-57.408-128-128-128zM192 832c35.264 0 64-28.736 64-64s-28.736-64-64-64-64 28.736-64 64 28.736 64 64 64zM448.832 72.192c-181.632 29.696-320.832 187.264-320.832 377.152 0 70.080 19.776 135.232 52.8 191.808 3.776-0.384 7.36-1.152 11.2-1.152 10.304 0 20.224 1.536 29.824 3.84l133.44-85.44c-22.016-31.296-35.264-69.248-35.264-110.4 0-102.656 80.768-185.792 182.144-190.976l16.832-79.040c-39.296-19.968-67.136-59.264-70.144-105.792zM576 0c-35.264 0-64 28.736-64 64s28.736 64 64 64 64-28.736 64-64-28.736-64-64-64zM693.504 114.624c-18.88 43.776-61.696 74.24-111.872 76.544l-15.68 73.472c79.616 23.424 138.048 96.192 138.048 183.36 0 32-8.576 61.76-22.464 88.32l152.256 116.736c37.376-59.072 59.52-128.704 59.52-203.648 0-144.64-81.152-269.76-199.808-334.784zM896 704c-35.264 0-64 28.736-64 64s28.736 64 64 64 64-28.736 64-64-28.736-64-64-64z" />
<glyph unicode="&#xe92f;" glyph-name="person1" d="M632.832 362.944c86.72 49.664 145.792 141.952 145.792 249.024 0 159.040-128.96 288-288 288s-288-128.96-288-288c0-107.072 59.136-199.424 145.792-249.024-137.728-49.728-242.624-169.856-268.032-321.664-2.944-17.408 8.832-33.92 26.24-36.864 17.728-2.88 33.92 8.832 36.864 26.24 19.072 113.536 91.072 205.248 187.968 254.336l116.544-92.992v-192h64v188.032l136.512 96.96c96.832-49.088 169.536-140.736 188.608-254.336 2.624-15.616 16.512-26.688 31.808-26.688 1.728 0 3.712 0.128 5.568 0.448 17.408 2.944 29.248 19.456 26.304 36.864-25.472 151.872-130.24 271.936-267.968 321.664zM266.624 611.968c0 123.52 100.48 224 224 224s224-100.48 224-224c0-123.52-100.48-224-224-224s-224 100.544-224 224zM490.624 255.808l-84.992 56.64c27.392 6.784 55.552 11.52 84.992 11.52s57.6-4.736 84.992-11.52l-84.992-56.64z" />
<glyph unicode="&#xe930;" glyph-name="close" d="M874.048 131.232c12.48-12.512 12.48-32.768 0-45.248s-32.768-12.48-45.248 0l-316.8 316.768-316.768-316.8c-12.512-12.48-32.768-12.48-45.248 0s-12.48 32.768 0 45.248l316.8 316.768-316.8 316.768c-12.48 12.512-12.48 32.768 0 45.248s32.768 12.48 45.248 0l316.768-316.8 316.768 316.8c12.512 12.48 32.768 12.48 45.248 0s12.48-32.768 0-45.248l-316.768-316.736 316.8-316.768z" />
<glyph unicode="&#xe931;" glyph-name="apply2" d="M736 521.152c-159.040 0-288-131.008-288-292.608 0-161.536 128.96-292.544 288-292.544s288 131.008 288 292.608c0 161.6-128.96 292.544-288 292.544zM736 1.024c-123.52 0-224 102.080-224 227.584s100.48 227.584 224 227.584 224-102.144 224-227.584c0-125.504-100.48-227.584-224-227.584zM765.312 391.168h-64v-195.072h192v65.024h-128zM128 768h128v-32c0-17.664 16.96-32 34.688-32h384c17.664 0 29.312 14.336 29.312 32v32h128v-192h64v192c0 35.328-25.984 64-61.312 64h-130.688v32c0 17.664-11.648 32-29.312 32h-34.688v32c0 17.664-11.648 32-29.312 32h-256c-17.728 0-34.688-14.336-34.688-32v-32h-29.312c-17.728 0-34.688-14.336-34.688-32v-32h-125.312c-35.392 0-66.688-28.672-66.688-64v-768c0-35.328 31.296-64 66.688-64h253.312v64h-256v768zM320 832h64v64h192v-64h64v-64h-320v64zM256 512h192v-64h-192v64zM256 384h128v-64h-128v64zM256 256h128v-64h-128v64z" />
<glyph unicode="&#xe932;" glyph-name="apply1" d="M867.008 227.392c36.928 29.312 60.992 74.048 60.992 124.8 0 88.384-71.616 160-160 160s-160-71.616-160-160c0-51.072 24.384-96.064 61.632-125.376-120.768-78.080-157.696-285.696-157.632-290.624l64-0.384c-0.384 33.792 60.032 256.384 192 256.384s192.064-254.848 192-256h64c0.192 4.8-34.368 213.44-156.992 291.2zM768 256.192c-52.928 0-96 43.072-96 96s43.072 96 96 96 96-43.072 96-96-43.072-96-96-96zM128 896h448v-288c0-17.664 16.96-32 34.688-32h285.312v-63.808h64v107.264c0 8.576-2.112 16.768-8.192 22.72l-310.656 308.544c-6.016 5.952-14.080 9.28-22.464 9.28h-520c-17.728 0-34.688-14.336-34.688-32v-960c0-17.664 16.96-32 34.688-32h352v64h-322.688v896zM640 859.264l224.384-219.264h-224.384v219.264zM192 704h256v-64h-256v64zM192 576h320v-64h-320v64zM192 192h256v-64h-256v64zM192 320h320v-64h-320v64zM192 448h320v-64h-320v64z" />
<glyph unicode="&#xe933;" glyph-name="search" d="M961.92 39.040l-230.848 230.848c64.32 73.216 103.616 168.96 103.616 274.112 0 229.76-186.176 416-416 416-229.76 0-416-186.24-416-416s186.24-416 416-416c101.568 0 194.56 36.48 266.816 96.96l231.232-231.168c6.272-6.272 14.464-9.344 22.656-9.344s16.384 3.136 22.656 9.344c12.352 12.48 12.352 32.768-0.128 45.248zM418.688 192c-194.112 0-352 157.888-352 352s157.888 352 352 352 352-157.888 352-352-157.952-352-352-352z" />
<glyph unicode="&#xe934;" glyph-name="bigadd" d="M512 960c-282.766 0-512-229.234-512-512s229.234-512 512-512 512 229.234 512 512-229.234 512-512 512zM512-35.556c-266.638 0-483.556 216.917-483.556 483.556s216.917 483.556 483.556 483.556c266.638 0 483.556-216.917 483.556-483.556s-216.917-483.556-483.556-483.556zM782.222 462.222h-256v256c0 7.822-6.4 14.222-14.222 14.222s-14.222-6.4-14.222-14.222v-256h-256c-7.822 0-14.222-6.4-14.222-14.222s6.4-14.222 14.222-14.222h256v-256c0-7.822 6.4-14.222 14.222-14.222s14.222 6.4 14.222 14.222v256h256c7.822 0 14.222 6.4 14.222 14.222s-6.4 14.222-14.222 14.222z" />
<glyph unicode="&#xe935;" glyph-name="dblright" d="M454.656 62.656c0 8.192 3.136 16.384 9.344 22.656l361.344 361.344-361.28 361.344c-12.48 12.48-12.48 32.768 0 45.248s32.768 12.48 45.248 0l384-384c12.48-12.48 12.48-32.768 0-45.248l-384-384c-12.48-12.48-32.768-12.48-45.248 0-6.272 6.272-9.408 14.464-9.408 22.656zM130.688 42.688c12.48-12.48 32.768-12.48 45.248 0l384 384c12.48 12.48 12.48 32.768 0 45.248l-384 384c-12.48 12.48-32.768 12.48-45.248 0s-12.48-32.768 0-45.248l361.344-361.344-361.344-361.344c-6.272-6.272-9.344-14.464-9.344-22.656s3.136-16.384 9.344-22.656z" />
<glyph unicode="&#xe936;" glyph-name="search2" d="M576 448c0-35.346-28.654-64-64-64s-64 28.654-64 64c0 35.346 28.654 64 64 64s64-28.654 64-64zM896 896h-768c-35.2 0-64-28.8-64-64v-768c0-35.2 28.8-64 64-64h768c35.2 0 64 28.8 64 64v768c0 35.2-28.8 64-64 64zM160 64c-17.664 0-32 14.336-32 32s14.336 32 32 32 32-14.336 32-32c0-17.664-14.336-32-32-32zM896 64c-22.976-22.976-64 0-64 0l-174.016 174.016c-41.472-28.864-91.648-46.016-145.984-46.016-141.376 0-256 114.624-256 256s114.624 256 256 256 256-114.624 256-256c0-54.336-17.152-104.512-46.016-145.984l174.016-174.016c0 0 22.976-41.024 0-64z" />
<glyph unicode="&#xe937;" glyph-name="add" d="M962.688 480c0-17.664-14.336-32-32-32h-418.688v-416c0-17.664-14.336-32-32-32s-32 14.336-32 32v416h-413.312c-17.664 0-32 14.336-32 32s14.336 32 32 32h413.312v416c0 17.664 14.336 32 32 32s32-14.336 32-32v-416h418.688c17.664 0 32-14.336 32-32z" />
<glyph unicode="&#xe938;" glyph-name="eyeOpen" d="M512 704c192 0 364.8-179.2 428.8-256-64-76.8-236.8-256-428.8-256s-364.8 179.2-428.8 256c70.4 76.8 236.8 256 428.8 256zM512 768c-281.6 0-512-320-512-320s230.4-320 512-320c281.6 0 512 320 512 320s-224 320-512 320v0zM512 544c51.2 0 96-44.8 96-96s-38.4-96-96-96c-51.2 0-96 44.8-96 96s44.8 96 96 96zM512 608c-83.2 0-160-70.4-160-160s70.4-160 160-160c89.6 0 160 70.4 160 160s-70.4 160-160 160v0z" />
<glyph unicode="&#xe939;" glyph-name="eyeClose" d="M454.4 595.2c19.2 6.4 38.4 12.8 57.6 12.8 89.6 0 160-70.4 160-160 0-19.2-6.4-38.4-12.8-57.6l-51.2 51.2c0 0 0 6.4 0 6.4 0 51.2-44.8 96-96 96 0 0-6.4 0-6.4 0l-51.2 51.2zM518.4 352c0 0 0 0 0 0-57.6 0-102.4 44.8-102.4 96 0 0 0 0 0 0l-51.2 57.6c-6.4-19.2-12.8-38.4-12.8-57.6 0-89.6 70.4-160 160-160 19.2 0 38.4 6.4 57.6 12.8l-51.2 51.2zM377.6 672c44.8 19.2 89.6 32 134.4 32 192 0 364.8-179.2 428.8-256-32-38.4-96-108.8-179.2-166.4l44.8-44.8c134.4 96 217.6 211.2 217.6 211.2s-230.4 320-512 320c-64 0-128-19.2-185.6-44.8l51.2-51.2zM652.8 217.6c-44.8-12.8-89.6-25.6-140.8-25.6-192 0-364.8 179.2-428.8 256 32 38.4 96 108.8 172.8 160l-44.8 51.2c-128-96-211.2-211.2-211.2-211.2s230.4-320 512-320c64 0 128 19.2 185.6 44.8l-44.8 44.8zM908.8 51.2c12.8 12.8 12.8 32 0 44.8l-716.8 716.8c-12.8 12.8-32 12.8-44.8 0s-12.8-32 0-44.8l716.8-716.8c6.4-6.4 12.8-6.4 25.6-6.4s12.8 0 19.2 6.4z" />
<glyph unicode="&#xe93a;" glyph-name="viewDetail" d="M448 640h-256v64h256v-64zM192 512h256v64h-256v-64zM192 384h217.6c12.8 25.6 25.6 44.8 44.8 64h-262.4v-64zM531.2-64h-435.2c-12.8 0-32 12.8-32 32v960c0 19.2 19.2 32 32 32h518.4c12.8 0 19.2-6.4 25.6-6.4l313.6-313.6c6.4-6.4 6.4-12.8 6.4-19.2v-166.4c0 19.2-64 38.4-64 57.6v64h-288c-12.8 0-32 12.8-32 32v288h-448v-896h326.4c25.6-25.6 51.2-44.8 76.8-64zM640 640h224l-224 217.6v-217.6zM192 256h179.2c0 19.2 6.4 44.8 12.8 64h-192v-64zM192 128h192c-6.4 19.2-12.8 44.8-12.8 64h-179.2v-64zM966.4-25.6l-128 96c-44.8-38.4-96-57.6-160-57.6-134.4 0-243.2 108.8-243.2 243.2s108.8 243.2 243.2 243.2 243.2-108.8 243.2-243.2c0-51.2-19.2-102.4-44.8-140.8l121.6-96-32-44.8zM864 256c0 102.4-83.2 179.2-179.2 179.2-102.4 0-179.2-83.2-179.2-179.2 0-102.4 83.2-179.2 179.2-179.2s179.2 76.8 179.2 179.2z" />
<glyph unicode="&#xe93b;" glyph-name="dblleft" d="M569.344 833.344c0-8.192-3.136-16.384-9.344-22.656l-361.408-361.344 361.344-361.344c12.48-12.48 12.48-32.768 0-45.248s-32.768-12.48-45.248 0l-384 384c-12.48 12.48-12.48 32.768 0 45.248l384 384c12.48 12.48 32.768 12.48 45.248 0 6.272-6.272 9.408-14.464 9.408-22.656zM893.312 853.312c-12.48 12.48-32.768 12.48-45.248 0l-384-384c-12.48-12.48-12.48-32.768 0-45.248l384-384c12.48-12.48 32.768-12.48 45.248 0s12.48 32.768 0 45.248l-361.408 361.344 361.344 361.344c6.272 6.272 9.344 14.464 9.344 22.656s-3.072 16.384-9.28 22.656z" />
<glyph unicode="&#xe93c;" glyph-name="delete" d="M384 128h-64v448h64v-448zM512 576h-64v-448h64v448zM640 576h-64v-448h64v448zM896 800c0-19.2-12.8-32-32-32h-768c-12.8 0-32 12.8-32 32s19.2 32 32 32h224v96c0 19.2 19.2 32 32 32h256c19.2 0 32-12.8 32-32v-96h224c19.2 0 32-12.8 32-32zM576 832v64h-192v-64h192zM768 704v-640c0-38.4-25.6-64-64-64h-448c-38.4 0-64 25.6-64 64v640h576zM704 640h-448v-576h448v576z" />
<glyph unicode="&#xe93d;" glyph-name="edit" d="M268.8 230.4l44.8 192 492.8 492.8c38.4 38.4 102.4 32 140.8-6.4 19.2-19.2 25.6-44.8 32-70.4 0-25.6-6.4-57.6-25.6-70.4l-492.8-492.8-192-44.8zM377.6 384l-12.8-64 64 12.8 480 480c6.4 6.4 6.4 12.8 6.4 19.2s-6.4 19.2-12.8 25.6c-6.4 6.4-19.2 12.8-25.6 12.8s-12.8 0-19.2-6.4l-480-480zM832 64h-768v768h537.6l70.4 64h-608c-32 0-64-25.6-64-64v-768c0-38.4 32-64 64-64h768c38.4 0 64 25.6 64 64v563.2l-64-70.4v-492.8z" />
<glyph unicode="&#xe93e;" glyph-name="dbltop" d="M897.344 390.656c-8.192 0-16.384 3.136-22.656 9.344l-361.344 361.408-361.344-361.344c-12.48-12.48-32.768-12.48-45.248 0s-12.48 32.768 0 45.248l384 384c12.48 12.48 32.768 12.48 45.248 0l384-384c12.48-12.48 12.48-32.768 0-45.248-6.272-6.272-14.464-9.408-22.656-9.408zM917.312 66.688c12.48 12.48 12.48 32.768 0 45.248l-384 384c-12.48 12.48-32.768 12.48-45.248 0l-384-384c-12.48-12.48-12.48-32.768 0-45.248s32.768-12.48 45.248 0l361.344 361.344 361.344-361.344c6.272-6.272 14.464-9.344 22.656-9.344s16.384 3.136 22.656 9.344z" />
<glyph unicode="&#xe93f;" glyph-name="dbldown" d="M126.656 505.344c8.192 0 16.384-3.136 22.656-9.344l361.344-361.344 361.344 361.344c12.48 12.48 32.768 12.48 45.248 0s12.48-32.768 0-45.248l-384-384c-12.48-12.48-32.768-12.48-45.248 0l-384 384c-12.48 12.48-12.48 32.768 0 45.248 6.272 6.208 14.464 9.344 22.656 9.344zM106.688 829.312c-12.48-12.48-12.48-32.768 0-45.248l384-384c12.48-12.48 32.768-12.48 45.248 0l384 384c12.48 12.48 12.48 32.768 0 45.248s-32.768 12.48-45.248 0l-361.344-361.408-361.344 361.408c-6.272 6.208-14.464 9.344-22.656 9.344s-16.384-3.136-22.656-9.344z" />
<glyph unicode="&#xe940;" glyph-name="command" d="M972.8 192c-6.4 32-38.4 64-76.8 64h-64v-64h64c6.4 0 12.8-6.4 12.8-12.8l38.4-179.2h-864l38.4 179.2c-6.4 6.4 6.4 12.8 6.4 12.8h512v64h-512c-38.4 0-70.4-25.6-76.8-64l-38.4-192c-6.4-32 19.2-64 51.2-64h896c38.4 0 57.6 25.6 51.2 64l-38.4 192zM832 352v64c0 51.2-44.8 96-96 96s-96-44.8-96-96v-64c0-38.4 0-76.8 64-89.6v-134.4h-64v-64h192v64h-64v134.4c64 12.8 64 51.2 64 89.6zM896 960h-768c-32 0-64-25.6-64-64v-512c0-38.4 32-64 64-64h448v64h-192v128h192v64h-192v128h256v-128h64v128h192v-384c0 0 64 25.6 64 64v512c0 38.4-25.6 64-64 64zM320 384h-192v128h192v-128zM320 576h-192v128h192v-128zM320 768h-192v128h192v-128zM640 768h-256v128h256v-128zM896 768h-192v128h192v-128z" />
<glyph unicode="&#xe941;" glyph-name="calendar" d="M642.688 640h-450.688v-448h640v448h-189.312zM770.688 576v-64h-128v64h128zM578.688 576v-64h-128v64h128zM578.688 448v-64h-128v64h128zM258.688 576h128v-64h-128v64zM258.688 448h128v-64h-128v64zM258.688 256v64h128v-64h-128zM450.688 256v64h128v-64h-128zM770.688 256h-128v64h128v-64zM642.688 384v64h128v-64h-128zM960 768v-704c0-35.328-25.984-64-61.312-64h-768c-35.392 0-66.688 28.672-66.688 64v704c0 35.328 31.296 64 66.688 64h125.312v-64h-128v-704h768v704h-128v64h130.688c35.328 0 61.312-28.672 61.312-64zM450.688 768v64h128v-64h-128zM354.688 768v0c-17.664 0-32 14.336-32 32v64c0 17.664 14.336 32 32 32v0c17.664 0 32-14.336 32-32v-64c0-17.664-14.336-32-32-32zM674.688 768v0c-17.664 0-32 14.336-32 32v64c0 17.664 14.336 32 32 32v0c17.664 0 32-14.336 32-32v-64c0-17.664-14.336-32-32-32z" />
<glyph unicode="&#xe942;" glyph-name="head" d="M614.4 524.25c0 56.474-45.939 102.413-102.413 102.413-56.461 0-102.387-45.939-102.387-102.413 0-56.461 45.926-102.387 102.387-102.387 56.474 0 102.413 45.926 102.413 102.387zM870.4 857.6h-716.8c-28.16 0-51.2-23.040-51.2-51.2v-716.8c0-28.16 23.040-51.2 51.2-51.2h716.8c28.16 0 51.2 23.040 51.2 51.2v716.8c0 28.16-23.040 51.2-51.2 51.2zM665.6 243.2c0 89.6-68.902 153.6-153.6 153.6s-153.6-64-153.6-153.6h-25.6c0 76.8 50.048 144.090 119.757 168.64-40.576 21.466-68.557 63.36-68.557 112.448 0 70.656 57.331 128.051 127.987 128.051 70.784 0 128.013-57.293 128.013-127.949 0-49.088-27.93-91.098-68.531-112.576 69.696-24.55 119.731-91.814 119.731-168.614h-25.6z" />
<glyph unicode="&#xe943;" glyph-name="dblhead" d="M575.68 513.331c0 50.867-41.37 92.25-92.25 92.25-50.854 0-92.224-41.382-92.224-92.25s41.37-92.237 92.224-92.237c50.88 0 92.25 41.37 92.25 92.237zM870.4 857.6h-716.8c-28.16 0-51.2-23.040-51.2-51.2v-716.8c0-28.16 23.040-51.2 51.2-51.2h716.8c28.16 0 51.2 23.040 51.2 51.2v716.8c0 28.16-23.040 51.2-51.2 51.2zM622.886 256c0 76.8-64.947 144.806-144.806 144.806-79.821-0.013-144.742-68.006-144.742-144.806h-25.6c0 76.8 48.525 138.33 115.686 159.283-34.445 20.595-57.805 56.474-57.805 99.443 0 64.986 52.851 117.146 117.824 117.146s117.85-53.21 117.85-118.195c0-44.634-25.242-80.448-61.914-100.442 63.706-22.72 109.107-80.435 109.107-157.235h-25.6zM691.738 332.8c0 38.4-42.099 96.742-95.91 103.859 6.899 10.739 12.058 21.184 16.013 33.587 25.485 9.741 43.712 33.574 43.712 62.438 0 36.467-29.018 65.741-65.152 67.149-6.451 8.717-13.786 16.538-21.965 23.616 6.246 1.331 12.71 1.984 19.354 1.984 51.482 0 93.376-41.933 93.376-93.402 0-34.624-19.174-61.773-47.245-77.888 48.832-19.2 83.418-70.144 83.418-121.344h-25.6z" />
<glyph unicode="&#xe944;" glyph-name="door" d="M422.362 320h179.2v256h-179.2v-256zM563.162 499.2h25.6v-51.2h-25.6v51.2zM371.162 268.8h281.6v358.4h-281.6v-358.4zM396.762 601.6h230.4v-307.2h-230.4v307.2zM870.4 857.6h-716.8c-28.16 0-51.2-23.040-51.2-51.2v-716.8c0-28.16 23.040-51.2 51.2-51.2h716.8c28.16 0 51.2 23.040 51.2 51.2v716.8c0 28.16-23.040 51.2-51.2 51.2zM678.362 268.8c0-14.144-11.456-25.6-25.6-25.6h-281.6c-14.144 0-25.6 11.456-25.6 25.6v358.4c0 14.144 11.456 25.6 25.6 25.6h281.6c14.144 0 25.6-11.456 25.6-25.6v-358.4z" />
<glyph unicode="&#xe945;" glyph-name="up" d="M993.472 267.52c0-8.448-3.264-16.832-9.856-23.040-12.736-12.224-33.024-11.904-45.248 0.896l-426.304 444.224-426.56-442.24c-12.288-12.736-32.512-13.12-45.248-0.896-12.672 12.352-13.056 32.64-0.832 45.248l449.664 466.24c6.016 6.336 14.4 9.792 23.040 9.792 8.704 0 17.024-3.584 23.040-9.792l449.344-468.224c6.016-6.272 8.96-14.208 8.96-22.208z" />
<glyph unicode="&#xe946;" glyph-name="right" d="M266.88-33.472c-8.448 0-16.832 3.264-23.040 9.856-12.224 12.736-11.904 33.024 0.896 45.248l444.224 426.304-442.24 426.56c-12.8 12.288-13.184 32.512-0.896 45.248 12.352 12.672 32.64 13.056 45.248 0.832l466.24-449.664c6.336-6.016 9.792-14.4 9.792-23.040 0-8.704-3.584-17.024-9.792-23.040l-468.224-449.344c-6.272-6.016-14.208-8.96-22.208-8.96z" />
<glyph unicode="&#xe947;" glyph-name="down" d="M30.528 628.096c0 8.448 3.264 16.832 9.856 23.040 12.736 12.224 32.96 11.904 45.248-0.896l426.304-444.224 426.56 442.24c12.288 12.736 32.512 13.12 45.248 0.896 12.672-12.352 13.056-32.64 0.832-45.248l-449.664-466.24c-6.016-6.336-14.4-9.792-23.040-9.792-8.704 0-17.024 3.584-23.040 9.792l-449.408 468.224c-5.952 6.272-8.896 14.208-8.896 22.208z" />
<glyph unicode="&#xe948;" glyph-name="caldelete" d="M64 640h832v-64h64v256c0 35.328-25.984 64-61.312 64h-66.688v-64h64v-128h-832v128h64v64h-61.312c-35.392 0-66.688-28.672-66.688-64v-704c0-35.328 31.296-64 66.688-64h253.312v64h-256v512zM256 576h64v-64h-64v64zM130.688 320h64v-64h-64v64zM226.688 832c17.664 0 32 14.336 32 32v64c0 17.664-14.336 32-32 32s-32-14.336-32-32v-64c0-17.664 14.336-32 32-32zM738.688 832c17.664 0 32 14.336 32 32v64c0 17.664-14.336 32-32 32s-32-14.336-32-32v-64c0-17.664 14.336-32 32-32zM320 896h320v-64h-320v64zM128 576h64v-64h-64v64zM386.688 576h64v-64h-64v64zM130.688 448h64v-64h-64v64zM258.688 448h64v-64h-64v64zM738.688 512c-159.040 0-288-128.96-288-288.064 0.064-159.040 128.832-287.936 287.872-287.936h0.064c159.168 0 288 128.896 288 287.936 0.128 159.104-128.832 288.064-287.936 288.064zM738.56 0c-123.392 0-223.808 100.48-223.872 223.936 0 123.52 100.48 224 224 224.064 59.84 0 116.096-23.296 158.464-65.6 42.304-42.304 65.6-98.56 65.536-158.4 0-123.52-100.544-224-224.128-224zM826.496 359.744l-90.496-90.496-90.496 90.496-45.248-45.248 90.496-90.496-90.496-90.496 45.248-45.248 90.496 90.496 90.496-90.496 45.248 45.248-90.496 90.496 90.496 90.496z" />
<glyph unicode="&#xe949;" glyph-name="left" d="M757.12 929.472c8.448 0 16.832-3.264 23.040-9.856 12.224-12.736 11.904-33.024-0.896-45.248l-444.224-426.304 442.24-426.56c12.736-12.288 13.12-32.512 0.896-45.248-12.352-12.672-32.64-13.056-45.248-0.832l-466.24 449.664c-6.336 6.016-9.792 14.4-9.792 23.040 0 8.704 3.584 17.024 9.792 23.040l468.224 449.344c6.272 6.016 14.208 8.96 22.208 8.96z" />
<glyph unicode="&#xe94a;" glyph-name="talk3" d="M192 702.656h640v-64h-640v64zM192 576h384v-64h-384v64zM192 448h320v-64h-320v64zM960 897.344h-896c-35.328 0-64-28.672-64-64v-578.688c0-35.328 28.672-64 64-64h64.704v-64c0-25.024 14.592-47.744 37.312-58.176 8.512-3.904 17.6-5.824 26.688-5.824 15.040 0 29.952 5.312 41.792 15.488l130.688 112.512h82.816v64h-106.624l-148.672-128v128h-128.704v578.688h896v-321.344h64v321.344c0 35.328-28.672 64-64 64zM867.008 227.2c36.928 29.312 60.992 74.048 60.992 124.8 0 88.384-71.616 160-160 160s-160-71.616-160-160c0-51.072 24.384-96.064 61.632-125.376-120.768-78.080-157.696-285.696-157.632-290.624l64-0.384c-0.384 33.792 60.032 256.384 192 256.384s192.064-254.848 192-256h64c0.192 4.8-34.368 213.44-156.992 291.2zM672 352c0 52.928 43.072 96 96 96s96-43.072 96-96-43.072-96-96-96-96 43.072-96 96z" />
<glyph unicode="&#xe94b;" glyph-name="caledit" d="M256 576h64v-64h-64v64zM258.688 448h64v-64h-64v64zM226.688 832c17.664 0 32 14.336 32 32v64c0 17.664-14.336 32-32 32s-32-14.336-32-32v-64c0-17.664 14.336-32 32-32zM320 896h320v-64h-320v64zM738.688 832c17.664 0 32 14.336 32 32v64c0 17.664-14.336 32-32 32s-32-14.336-32-32v-64c0-17.664 14.336-32 32-32zM258.688 320h64v-64h-64v64zM130.688 320h64v-64h-64v64zM514.688 576h64v-64h-64v64zM130.688 448h64v-64h-64v64zM128 576h64v-64h-64v64zM386.688 448h64v-64h-64v64zM386.688 576h64v-64h-64v64zM993.28 614.656c-9.408 9.408-20.864 16.576-33.28 21.504v195.84c0 35.328-25.984 64-61.312 64h-66.688v-64h64v-128h-832v128h64v64h-61.312c-35.392 0-66.688-28.672-66.688-64v-704c0-35.328 31.296-64 66.688-64h189.312v64h-192v512h829.184c-15.36-3.776-29.888-9.856-40.896-20.864l-491.456-491.456-46.144-191.68 191.68 46.144 491.456 491.456c18.368 18.304 27.84 44.8 25.984 72.768-1.728 25.728-12.864 50.688-30.528 68.288zM949.312 522.112l-477.76-477.824-63.936-15.36 15.36 63.936 477.824 477.76c5.248 5.312 13.12 6.144 17.344 6.144 9.92 0 20.16-4.032 26.688-10.624 5.952-5.952 9.92-14.976 10.496-24.256 0.512-8.192-1.664-15.424-6.016-19.776z" />
<glyph unicode="&#xe94c;" glyph-name="back" d="M1026.688 480c0-17.664-14.336-32-32-32h-827.776l265.152-260.8c12.608-12.416 12.736-32.64 0.384-45.248-6.272-6.4-14.592-9.536-22.784-9.536-8.128 0-16.192 3.072-22.464 9.216l-325.056 319.616c-6.016 5.952-9.472 14.144-9.536 22.656s3.328 16.704 9.28 22.72l326.336 328.32c12.416 12.544 32.704 12.672 45.248 0.128 12.48-12.416 12.544-32.704 0.128-45.248l-276.096-277.824h837.184c17.664 0 32-14.336 32-32z" />
<glyph unicode="&#xe94d;" glyph-name="export" d="M917.632 485.184c0.256-8.512-2.816-16.832-8.704-23.040l-210.432-224.192c-6.272-6.72-14.784-10.112-23.296-10.112-7.872 0-15.744 2.88-21.888 8.64-12.928 12.096-13.568 32.32-1.408 45.248l155.968 166.272h-517.184c-17.664 0-32 14.336-32 32s14.336 32 32 32h517.632l-154.88 143.424c-12.928 12.032-13.76 32.256-1.728 45.248s32.256 13.76 45.248 1.728l210.432-194.816c6.208-5.824 9.92-13.888 10.24-22.4zM354.688 64h-290.688v832h290.688c17.664 0 32 14.336 32 32s-14.336 32-32 32h-288c-35.392 0-66.688-28.672-66.688-64v-832c0-35.328 31.296-64 66.688-64h288c17.664 0 32 14.336 32 32s-14.336 32-32 32z" />
<glyph unicode="&#xe94e;" glyph-name="host" d="M190.848 323.968h-64v64h64v-64zM318.848 387.968h-64v-64h64v64zM446.848 387.968h-64v-64h64v64zM574.848 387.968h-64v-64h64v64zM832 384h-192v-192h192v192zM704 320h64v-64h-64v64zM190.848 259.968h-64v-64h64v64zM318.848 259.968h-64v-64h64v64zM446.848 259.968h-64v-64h64v64zM574.848 259.968h-64v-64h64v64zM190.848 771.968h-64v-64h64v64zM318.848 771.968h-64v-64h64v64zM446.848 771.968h-64v-64h64v64zM574.848 771.968h-64v-64h64v64zM830.848 771.968h-64v-64h64v64zM702.848 771.968h-64v-64h64v64zM832 576v-64h66.688c35.328 0 61.312-30.976 61.312-66.304v-320c0-35.392-25.984-61.696-61.312-61.696h-66.688v-64h-128v64h-448v-64h-128v64h-61.312c-35.392 0-66.688 26.304-66.688 61.696v320c0 35.328 31.296 66.304 66.688 66.304h61.312v64h-61.312c-35.392 0-66.688 26.304-66.688 61.696v192c0 35.328 31.296 66.304 66.688 66.304h832c35.328 0 61.312-30.976 61.312-66.304v-192c0-35.392-25.984-61.696-61.312-61.696h-66.688zM64 448v-320h832v320h-832zM704 512v64h-448v-64h448zM896 640v192h-832v-192h832z" />
<glyph unicode="&#xe94f;" glyph-name="reflesh" d="M960 800v-192c0-17.664-11.648-32-29.312-32h-192c-17.664 0-32 14.336-32 32s14.336 32 32 32h100.736c-61.76 150.656-207.296 246.784-372.608 246.784-207.808 0-382.336-118.784-401.792-374.784h-0.384c0-17.664-14.336-32-32-32s-32 14.336-32 32c19.648 256 222.080 437.696 464.832 437.696 191.744 0 366.528-109.312 430.528-283.776v134.080c0 17.664 14.336 32 32 32s32-14.336 32-32zM935.424 448h-1.024c-2.496 15.168-15.104 27.008-30.976 27.008-15.936 0-28.48-11.776-30.976-27.008h-1.408c-19.456-192-193.984-365.632-401.728-365.632-160.384 0-302.144 94.208-366.976 237.632h124.352c17.664 0 32 14.336 32 32s-14.336 32-32 32h-192c-17.728 0-34.688-14.336-34.688-32v-192c0-17.664 14.336-32 32-32s32 14.336 32 32v90.24c64-141.312 234.944-231.872 403.968-231.872 238.592 0 439.808 167.936 465.216 416.768 0.64 2.56 1.92 5.056 1.92 7.872 0 0.64-0.192 1.216-0.192 1.92 0.064 1.024 0.448 2.048 0.512 3.072z" />
<glyph unicode="&#xe950;" glyph-name="video3" d="M962.688 832h-640c-35.392 0-66.688-28.672-66.688-64v-148.544l-210.432 87.744c-9.856 4.032-21.76 3.008-30.72-2.944-8.832-5.952-14.848-15.936-14.848-26.624v-416c0-10.688 6.592-20.608 15.488-26.56 5.312-3.648 12.288-5.44 18.56-5.44 4.032 0 7.168 0.768 11.008 2.368l210.944 85.888v-125.888c0-35.328 31.296-64 66.688-64h640c35.328 0 61.312 28.672 61.312 64v576c0 35.328-25.984 64-61.312 64zM64 309.12v320.576l192-79.552v-163.2l-192-77.824zM960 192h-640v576h640v-576zM898.688 640h-64v64h64v-64z" />
<glyph unicode="&#xe951;" glyph-name="map" d="M511.296-2.56c-3.072 0-6.208 0.448-9.152 1.344l-217.92 64.96-189.568-50.112c-11.776-3.2-24.64 0.832-32.704 10.368-7.936 9.472-9.728 22.656-4.544 33.92l126.976 276.672c5.248 11.392 16.64 18.688 29.12 18.688h104.512v-64h-84.032l-90.112-196.352 132.672 35.072c5.76 1.472 11.84 1.408 17.344-0.256l217.216-64.768 217.344 68.16c6.016 1.856 12.352 1.92 18.496 0.192l132.544-38.528-89.472 196.48h-84.352v64h104.96c12.544 0 23.936-7.296 29.12-18.752l126.912-278.656c5.184-11.392 3.264-24.704-4.928-34.176s-21.248-13.312-33.152-9.792l-190.208 55.296-217.472-68.224c-3.136-1.024-6.336-1.536-9.6-1.536zM536.832 203.904c7.040 9.792 172.928 240.448 209.792 322.112 15.488 34.56 23.36 71.296 23.36 109.376 0 145.088-116.224 263.168-259.136 263.168-142.784 0-259.008-118.080-259.008-263.168 0-37.504 7.552-73.664 22.464-107.456 36.416-82.688 203.584-314.304 210.624-324.096l25.984-35.968 25.92 36.032zM705.984 635.392c0-28.992-6.016-56.96-17.728-83.136-25.92-57.536-128.704-205.504-177.472-274.496-48.96 69.184-152.32 217.792-177.92 275.968-11.264 25.6-17.024 53.12-17.024 81.664 0 109.824 87.488 199.168 195.008 199.168 107.584 0 195.136-89.344 195.136-199.168zM631.488 640.512c0 66.88-54.4 121.28-121.28 121.28-66.944 0-121.344-54.4-121.344-121.28s54.464-121.28 121.344-121.28c66.944 0 121.28 54.4 121.28 121.28zM567.488 640.512c0-31.616-25.664-57.28-57.28-57.28s-57.344 25.664-57.344 57.28 25.728 57.28 57.344 57.28c31.616 0 57.28-25.728 57.28-57.28z" />
<glyph unicode="&#xe952;" glyph-name="clock" d="M482.688 896c229.376 0 416-186.624 416-416s-186.624-416-416-416-416 186.624-416 416c0 229.376 186.624 416 416 416zM482.688 960c-265.088 0-480-214.848-480-480 0-265.088 214.912-480 480-480s480 214.848 480 480c0 265.152-214.912 480-480 480v0zM610.688 448h-162.688v224c0 17.664-14.336 32-32 32s-32-14.336-32-32v-256c0-17.664 17.024-32 34.688-32h192c17.664 0 32 14.336 32 32s-14.336 32-32 32z" />
<glyph unicode="&#xe953;" glyph-name="talk4" d="M192 702.656h640v-64h-640v64zM192 576h640v-64h-640v64zM192 448h320v-64h-320v64zM960 897.344h-896c-35.328 0-64-28.672-64-64v-578.688c0-35.328 28.672-64 64-64h64.704v-64c0-25.024 14.592-47.744 37.312-58.176 8.512-3.904 17.6-5.824 26.688-5.824 15.040 0 29.952 5.312 41.792 15.488l130.688 112.512h82.816v64h-106.624l-148.672-128v128h-128.704v578.688h896v-321.344h64v321.344c0 35.328-28.672 64-64 64zM736 0h-96v384h96c17.6 0 32 14.4 32 32s-14.4 32-32 32h-128c-17.6 0-32-14.4-32-32v-448c0-17.6 14.4-32 32-32h128c17.6 0 32 14.4 32 32s-14.4 32-32 32zM1021.504 236.352c-0.32 0.768-0.96 1.28-1.344 1.984-1.472 2.944-3.072 5.888-5.504 8.32-0.064 0.064-0.192 0.064-0.256 0.128l-126.272 126.336c-12.416 12.416-32.832 12.416-45.248 0s-12.416-32.832 0-45.248l71.872-71.872h-178.752c-17.6 0-32-14.4-32-32s14.4-32 32-32h178.752l-71.808-71.872c-12.416-12.416-12.416-32.832 0-45.248s32.832-12.416 45.248 0l126.272 126.272c0.064 0.064 0.192 0.064 0.256 0.128 2.368 2.368 3.904 5.248 5.376 8.128 0.384 0.768 1.088 1.344 1.408 2.176 1.6 3.968 2.496 8.192 2.496 12.416 0 0 0 0 0 0s0 0 0 0c0 4.224-0.896 8.448-2.496 12.352z" />
<glyph unicode="&#xe954;" glyph-name="talk5" d="M192 702.656h640v-64h-640v64zM192 576h640v-64h-640v64zM192 448h320v-64h-320v64zM960 897.344h-896c-35.328 0-64-28.672-64-64v-578.688c0-35.328 28.672-64 64-64h64.704v-64c0-25.024 14.592-47.744 37.312-58.176 8.512-3.904 17.6-5.824 26.688-5.824 15.040 0 29.952 5.312 41.792 15.488l130.688 112.512h82.816v64h-106.624l-148.672-128v128h-128.704v578.688h896v-321.344h64v321.344c0 35.328-28.672 64-64 64zM960 448h-320c-35.2 0-64-28.8-64-64v-384c0-35.2 28.8-64 64-64h320c35.2 0 64 28.8 64 64v384c0 35.2-28.8 64-64 64zM960 0h-320v384h320v-384zM736 256h128c17.6 0 32 14.4 32 32s-14.4 32-32 32h-128c-17.6 0-32-14.4-32-32s14.4-32 32-32zM736 128h128c17.6 0 32 14.4 32 32s-14.4 32-32 32h-128c-17.6 0-32-14.4-32-32s14.4-32 32-32z" />
<glyph unicode="&#xe955;" glyph-name="goright" d="M928 833.152h-896c-17.664 0-32 14.336-32 32v0c0 17.664 14.336 32 32 32h896c17.664 0 32-14.336 32-32v0c0-17.664-14.336-32-32-32zM960 609.152v0c0 17.664-14.336 32-32 32h-896c-17.664 0-32-14.336-32-32v0c0-17.664 14.336-32 32-32h896c17.664 0 32 14.336 32 32zM945.856 256.128l-225.344 200c-13.312 11.776-33.472 10.56-45.184-2.688-11.776-13.248-10.496-33.472 2.688-45.184l170.304-151.104h-815.68c-17.664 0-32-14.336-32-32s14.336-32 32-32h800.192l-154.944-138.368c-13.184-11.776-14.336-32-2.56-45.184 6.336-7.104 15.040-10.688 23.872-10.688 7.616 0 15.168 2.688 21.312 8.128l225.344 201.344c6.784 6.080 10.688 14.784 10.688 23.936s-3.84 17.728-10.688 23.808z" />
<glyph unicode="&#xe956;" glyph-name="camera" d="M962.688 768h-258.688v65.152c0 35.328-25.984 62.848-61.312 62.848h-256c-35.392 0-66.688-27.52-66.688-62.848v-65.152h-253.312c-35.392 0-66.688-27.52-66.688-62.848v-576c0-35.328 31.296-65.152 66.688-65.152h896c35.328 0 61.312 29.824 61.312 65.152v576c0 35.328-25.984 62.848-61.312 62.848zM960 128h-896v576h320v128h256v-128h320v-576zM834.688 641.152h-64v-64h64v64zM508.608 615.68c-123.52 0-224-100.48-224-224s100.48-224 224-224c123.52 0 224 100.48 224 224s-100.48 224-224 224zM508.608 231.68c-88.192 0-160 71.808-160 160s71.744 160 160 160c88.256 0 160-71.744 160-160s-71.744-160-160-160z" />
<glyph unicode="&#xe957;" glyph-name="delete1" d="M512 960c-282.752 0-512-229.248-512-512s229.248-512 512-512 512 229.248 512 512-229.248 512-512 512zM760.896 289.6c24.896-24.896 24.896-65.6 0-90.496s-65.6-24.896-90.496 0l-158.4 158.4-158.4-158.4c-24.896-24.896-65.6-24.896-90.496 0s-24.896 65.6 0 90.496l158.4 158.4-158.4 158.4c-24.896 24.896-24.896 65.6 0 90.496s65.6 24.896 90.496 0l158.4-158.4 158.4 158.4c24.896 24.896 65.6 24.896 90.496 0s24.896-65.6 0-90.496l-158.4-158.4 158.4-158.4z" />
<glyph unicode="&#xe958;" glyph-name="device" d="M764.736 363.328c61.312 63.36 99.264 149.504 99.264 244.672 0 194.368-157.632 352-352 352-194.432 0-352-157.632-352-352 0-106.496 47.488-201.664 122.176-266.24-46.528-50.688-177.664-200.768-172.928-279.104 1.344-22.144 11.84-35.52 20.416-42.816 43.904-37.376 115.008-14.784 204.8 13.952 62.272 19.904 132.8 42.368 193.472 42.368 60.736 0 132.16-23.36 195.2-44.032 54.464-17.856 102.080-33.408 139.648-33.408 25.088 0 45.632 6.912 60.736 24.768 49.984 58.944-57.728 216.192-158.784 339.84zM512 896c147.84 0 268.608-112.384 284.736-256h-124.16c-14.848 73.024-79.36 128-156.8 128s-141.888-54.976-156.736-128h-131.776c16.128 143.616 136.896 256 284.736 256zM611.84 608c0-52.928-43.072-96-96-96s-96 43.072-96 96 43.008 96 96 96 96-43.072 96-96zM227.264 576h131.776c14.848-73.024 79.36-128 156.8-128s141.952 54.976 156.8 128h124.16c-16.192-143.616-136.96-256-284.8-256s-268.608 112.384-284.736 256zM743.040 92.928c-67.52 22.144-144.064 47.232-215.040 47.232-70.656 0-146.24-24.128-212.928-45.376-53.696-17.088-127.296-40.32-141.824-29.248-6.72 27.008 68.16 138.048 160.32 237.568l-6.016 5.568c53.632-33.216 116.736-52.672 184.448-52.672 76.16 0 146.496 24.448 204.096 65.6 90.88-111.68 163.84-231.808 158.592-256.768-12.16-11.2-89.856 14.4-131.648 28.096z" />
<glyph unicode="&#xe959;" glyph-name="device2" d="M764.736 363.328c61.312 63.36 99.264 149.504 99.264 244.672 0 194.368-157.632 352-352 352-194.432 0-352-157.632-352-352 0-106.496 47.488-201.664 122.176-266.24-46.528-50.688-177.664-200.768-172.928-279.104 1.344-22.144 11.84-35.52 20.416-42.816 43.904-37.376 115.008-14.784 204.8 13.952 62.272 19.904 132.8 42.368 193.472 42.368 60.736 0 132.16-23.36 195.2-44.032 54.464-17.856 102.080-33.408 139.648-33.408 25.088 0 45.632 6.912 60.736 24.768 49.984 58.944-57.728 216.192-158.784 339.84zM512 896c147.84 0 268.608-112.384 284.736-256h-124.16c-14.848 73.024-79.36 128-156.8 128s-141.888-54.976-156.736-128h-131.776c16.128 143.616 136.896 256 284.736 256zM611.84 608c0-52.928-43.072-96-96-96s-96 43.072-96 96 43.008 96 96 96 96-43.072 96-96zM227.264 576h131.776c14.848-73.024 79.36-128 156.8-128s141.952 54.976 156.8 128h124.16c-16.192-143.616-136.96-256-284.8-256s-268.608 112.384-284.736 256zM743.040 92.928c-67.52 22.144-144.064 47.232-215.040 47.232-70.656 0-146.24-24.128-212.928-45.376-53.696-17.088-127.296-40.32-141.824-29.248-6.72 27.008 68.16 138.048 160.32 237.568l-6.016 5.568c53.632-33.216 116.736-52.672 184.448-52.672 76.16 0 146.496 24.448 204.096 65.6 90.88-111.68 163.84-231.808 158.592-256.768-12.16-11.2-89.856 14.4-131.648 28.096zM1011.52 902.272l-956.928-956.928c-12.416-12.416-32.832-12.416-45.248 0v0c-12.416 12.416-12.416 32.832 0 45.248l956.928 956.928c12.416 12.416 32.832 12.416 45.248 0v0c12.416-12.416 12.416-32.832 0-45.248z" />
<glyph unicode="&#xe95a;" glyph-name="leftgo" d="M1014.464 478.976c0 264.64-216.32 479.488-482.176 479.488-198.464 0-379.456-123.84-450.496-308.352-1.152-3.008-1.344-10.112-1.536-10.112h-16.256v193.856c0 17.664-14.336 32-32 32s-32-14.336-32-32v-224c0-17.728 26.496-33.856 44.16-33.856h224c17.664 0 32 14.336 32 32s-14.272 32-32 32h-120c65.216 128 217.216 254.528 384.128 254.528 230.592 0 418.176-185.152 418.176-414.528s-187.648-416.32-418.176-416.32c-207.168 0-385.216 153.472-414.144 357.184-2.496 17.536-19.008 29.568-36.16 27.136-17.472-2.496-29.696-18.752-27.2-36.224 33.344-235.072 238.656-412.352 477.504-412.352 265.856 0 482.176 214.848 482.176 479.552z" />
<glyph unicode="&#xe95b;" glyph-name="rightgo" d="M482.176-0.576c238.848 0 444.096 177.28 477.504 412.352 2.496 17.472-9.664 33.728-27.2 36.224-17.152 2.432-33.664-9.6-36.16-27.136-28.928-203.712-206.912-357.184-414.144-357.184-230.528 0-418.176 186.88-418.176 416.32 0 229.376 187.648 414.528 418.176 414.528 166.976 0 318.976-126.528 384.192-254.528h-120c-17.664 0-32-14.336-32-32s14.336-32 32-32h224c17.664 0 53.632 16.128 53.632 33.856v224c0 17.664-14.336 32-32 32s-32-14.336-32-32v-193.856h-25.792c-0.192 0-0.384 7.104-1.536 10.112-71.040 184.448-252.032 308.352-450.496 308.352-265.856 0-482.176-214.848-482.176-479.488 0-264.704 216.32-479.552 482.176-479.552z" />
<glyph unicode="&#xe95c;" glyph-name="apply3" d="M896 448h-320c-35.2 0-64-28.8-64-64v-384c0-35.2 28.8-64 64-64h320c35.2 0 64 28.8 64 64v384c0 35.2-28.8 64-64 64zM896 0h-320v384h320v-384zM672 256h128c17.6 0 32 14.4 32 32s-14.4 32-32 32h-128c-17.6 0-32-14.4-32-32s14.4-32 32-32zM672 128h128c17.6 0 32 14.4 32 32s-14.4 32-32 32h-128c-17.6 0-32-14.4-32-32s14.4-32 32-32zM256 256h192v-64h-192v64zM256 384h192v-64h-192v64zM128 768h128v-32c0-17.664 16.96-32 34.688-32h384c17.664 0 29.312 14.336 29.312 32v32h128v-256h64v256c0 35.328-25.984 64-61.312 64h-130.688v32c0 17.664-11.648 32-29.312 32h-34.688v32c0 17.664-11.648 32-29.312 32h-256c-17.728 0-34.688-14.336-34.688-32v-32h-29.312c-17.728 0-34.688-14.336-34.688-32v-32h-125.312c-35.392 0-66.688-28.672-66.688-64v-768c0-35.328 31.296-64 66.688-64h317.312v64h-320v768zM320 832h64v64h192v-64h64v-64h-320v64zM256 512h192v-64h-192v64z" />
<glyph unicode="&#xe95d;" glyph-name="person2" d="M628.416 362.368c83.264 50.496 139.52 141.12 139.52 245.632 0 159.040-128.96 288-288 288s-288-128.96-288-288c0-104.512 56.192-195.136 139.52-245.632-156.288-55.872-267.52-196.864-267.52-362.368h832c0 165.568-111.232 306.496-267.52 362.368z" />
<glyph unicode="&#xe95e;" glyph-name="distributed" d="M896 192v256h-320v128h64c35.2 0 64 28.8 64 64v192c0 35.2-28.8 64-64 64h-192c-35.2 0-64-28.8-64-64v-192c0-35.2 28.8-64 64-64h64v-128h-320v-256c-35.2 0-64-28.8-64-64v-64c0-35.2 28.8-64 64-64h64c35.2 0 64 28.8 64 64v64c0 35.2-28.8 64-64 64v192h256v-192c-35.2 0-64-28.8-64-64v-64c0-35.2 28.8-64 64-64h64c35.2 0 64 28.8 64 64v64c0 35.2-28.8 64-64 64v192h256v-192c-35.2 0-64-28.8-64-64v-64c0-35.2 28.8-64 64-64h64c35.2 0 64 28.8 64 64v64c0 35.2-28.8 64-64 64z" />
<glyph unicode="&#xe95f;" glyph-name="inRepertory" d="M640 0h-448v576c0 19.072-8.32 36.16-21.504 47.872l343.68 257.792 125.824-83.904v-93.76h64v128l-192 128-512-384h128v-640h576v192h-64v-128zM1024 512h-192v128l-384-192v-64l384-192v128h192z" />
<glyph unicode="&#xe960;" glyph-name="outRepertory" d="M640 0h-448v576c0 19.072-8.32 36.16-21.504 47.872l343.68 257.792 125.824-83.904v-93.76h64v128l-192 128-512-384h128v-640h576v192h-64v-128zM448 320h192v-128l384 192v64l-384 192v-128h-192z" />
<glyph unicode="&#xe961;" glyph-name="man" d="M416 576c-88.192 0-160-71.744-160-160 0-88.192 71.808-160 160-160s160 71.808 160 160c0 88.256-71.808 160-160 160zM832 960h-704c-70.4 0-128-57.6-128-128v-704c0-70.4 57.6-128 128-128h704c70.4 0 128 57.6 128 128v704c0 70.4-57.6 128-128 128zM768 736v-256c0-17.6-14.4-32-32-32s-32 14.4-32 32v178.752l-109.12-109.184c27.968-37.376 45.12-83.264 45.12-133.568 0-123.712-100.288-224-224-224s-224 100.288-224 224c0 123.712 100.288 224 224 224 50.304 0 96.192-17.152 133.568-45.184l109.184 109.184h-178.752c-17.6 0-32 14.4-32 32s14.4 32 32 32h256c4.224 0 8.448-0.896 12.352-2.496 0.704-0.32 1.28-0.96 1.984-1.344 2.944-1.472 5.888-3.072 8.32-5.504s4.032-5.376 5.504-8.32c0.384-0.704 1.024-1.28 1.344-1.984 1.664-3.904 2.496-8.128 2.496-12.352v0z" />
<glyph unicode="&#xe962;" glyph-name="woman" d="M640 608c0 88.256-71.808 160-160 160s-160-71.744-160-160c0-88.256 71.808-160 160-160s160 71.744 160 160zM832 960h-704c-70.4 0-128-57.6-128-128v-704c0-70.4 57.6-128 128-128h704c70.4 0 128 57.6 128 128v704c0 70.4-57.6 128-128 128zM672 320c17.6 0 32-14.4 32-32s-14.4-32-32-32h-160v-96c0-17.6-14.4-32-32-32s-32 14.4-32 32v96h-160c-17.6 0-32 14.4-32 32s14.4 32 32 32h160v67.2c-108.416 15.68-192 108.032-192 220.8 0 123.712 100.288 224 224 224s224-100.288 224-224c0-112.768-83.584-205.12-192-220.8v-67.2h160z" />
<glyph unicode="&#xe963;" glyph-name="store" d="M832 64h-640c-38.4 0-64 25.6-64 64v640c0 38.4 25.6 64 64 64h640c38.4 0 64-25.6 64-64v-640c0-38.4-25.6-64-64-64zM192 128h640v640h-640v-640zM416 480h64v-128h-64v128zM832 64l-460.8-121.6c-64-12.8-115.2 32-115.2 108.8v793.6c0 70.4 51.2 121.6 115.2 108.8l460.8-121.6c57.6-19.2 64-44.8 64-64v-640c0-51.2-64-64-64-64zM371.2 870.4c-19.2 6.4-38.4-12.8-38.4-38.4v-768c0-25.6 19.2-38.4 38.4-38.4l460.8 102.4c12.8 0 0-19.2 0 0v640c0 19.2 12.8 0 0 0l-460.8 102.4z" />
<glyph unicode="&#xe964;" glyph-name="temptake" d="M832 0h-640c-38.4 0-64 25.6-64 64v345.6c0 12.8 0 19.2 6.4 25.6l83.2 166.4c12.8 25.6 32 38.4 57.6 38.4h44.8v-64h-44.8l-83.2-166.4v-345.6h640v345.6l-89.6 166.4h-38.4v64h38.4c25.6 0 44.8-12.8 57.6-32l89.6-166.4c6.4-6.4 6.4-19.2 6.4-32v-345.6c0-38.4-25.6-64-64-64zM192 448h640v-64h-640v64zM640 512h-64v256h38.4l-102.4 96-102.4-96h38.4v-256h-64v192h-128l256 256 256-256h-128zM678.4 192h-339.2c-6.4 0-19.2 19.2-19.2 32v0c0 19.2 12.8 32 25.6 32h339.2c12.8 0 25.6-12.8 25.6-32v0c-6.4-19.2-19.2-32-32-32z" />
<glyph unicode="&#xe965;" glyph-name="return" d="M832 0h-640c-38.4 0-64 25.6-64 64v345.6c0 12.8 0 19.2 6.4 25.6l83.2 166.4c12.8 25.6 32 38.4 57.6 38.4h44.8v-64h-44.8l-83.2-166.4v-345.6h640v345.6l-89.6 166.4h-38.4v64h38.4c25.6 0 44.8-12.8 57.6-32l89.6-166.4c6.4-6.4 6.4-19.2 6.4-32v-345.6c0-38.4-25.6-64-64-64zM192 448h640v-64h-640v64zM640 768v192h-64v-256h32l-96-89.6-96 89.6h32v256h-64v-192h-134.4l262.4-256 256 256zM678.4 192h-339.2c-6.4 0-19.2 19.2-19.2 32v0c0 19.2 12.8 32 25.6 32h339.2c12.8 0 25.6-12.8 25.6-32v0c-6.4-19.2-19.2-32-32-32z" />
<glyph unicode="&#xe966;" glyph-name="record" d="M768 0h-512c-38.4 0-64 25.6-64 64v768c0 38.4 25.6 64 64 64h307.2c19.2 0 32-6.4 44.8-19.2l204.8-204.8c12.8-12.8 19.2-32 19.2-44.8v-563.2c0-38.4-25.6-64-64-64zM256 64h512v563.2l-204.8 204.8h-307.2v-768zM768 576h-192c-38.4 0-64 25.6-64 64v192h64v-192h192v-64zM640 448h-256c-19.2 0-32 12.8-32 32s12.8 32 32 32h256c19.2 0 32-12.8 32-32s-12.8-32-32-32zM640 192h-256c-19.2 0-32 12.8-32 32s12.8 32 32 32h256c19.2 0 32-12.8 32-32s-12.8-32-32-32zM640 320h-256c-19.2 0-32 12.8-32 32s12.8 32 32 32h256c19.2 0 32-12.8 32-32s-12.8-32-32-32z" />
<glyph unicode="&#xe967;" glyph-name="undistributed" d="M704 832c0 35.2-28.8 64-64 64h-192c-35.2 0-64-28.8-64-64v-192c0-35.2 28.8-64 64-64h192c35.2 0 64 28.8 64 64v192zM192 64h64v-64h-64v64zM192 192h64v-64h-64v64zM192 320h64v-64h-64v64zM192 448h64v-64h-64v64zM320 448h64v-64h-64v64zM448 448h64v-64h-64v64zM576 448h64v-64h-64v64zM704 448h64v-64h-64v64zM832 448h64v-64h-64v64zM832 320h64v-64h-64v64zM832 192h64v-64h-64v64zM832 64h64v-64h-64v64zM512 512h64v-64h-64v64zM512 384h64v-64h-64v64zM512 256h64v-64h-64v64zM512 128h64v-64h-64v64z" />
<glyph unicode="&#xe968;" glyph-name="arrangeRecord" d="M673.6 110.861l271.526 271.526 45.254-45.254-271.526-271.526-45.254 45.254zM128 832h64v-896h-64v896zM832 832h64v-448h-64v448zM832 128h64v-192h-64v192zM192 0h704v-64h-704v64zM320 576h384v-64h-384v64zM320 448h384v-64h-384v64zM320 320h384v-64h-384v64zM192 768h640v-64h-640v64zM128 896h128v-64h-128v64zM448 896h128v-64h-128v64zM320 960h64v-128h-64v128zM640 960h64v-128h-64v128zM768 896h128v-64h-128v64z" />
<glyph unicode="&#xe969;" glyph-name="arrangeManage" d="M128 832h64v-896h-64v896zM832 832h64v-576h-64v576zM192 0h320v-64h-320v64zM320 576h384v-64h-384v64zM320 448h384v-64h-384v64zM320 320h384v-64h-384v64zM192 768h640v-64h-640v64zM128 896h128v-64h-128v64zM448 896h128v-64h-128v64zM320 960h64v-128h-64v128zM640 960h64v-128h-64v128zM768 896h128v-64h-128v64zM750.016 216c-115.968 0-209.984-62.656-209.984-140.032 0-77.312 94.016-140.032 209.984-140.032s209.984 62.72 209.984 140.032c0 77.376-94.016 140.032-209.984 140.032zM750.016 6.016c-77.312 0-140.032 31.36-140.032 70.016s62.656 70.016 140.032 70.016 140.032-31.36 140.032-70.016c-0.064-38.72-62.72-70.016-140.032-70.016zM798.080 78.208c0-27.393-21.519-49.6-48.064-49.6s-48.064 22.207-48.064 49.6c0 27.393 21.519 49.6 48.064 49.6s48.064-22.207 48.064-49.6z" />
<glyph unicode="&#xe96a;" glyph-name="approve4detain" d="M832 736c0 17.6-14.4 32-32 32h-576c-17.6 0-32-14.4-32-32s14.4-32 32-32h576c17.6 0 32 14.4 32 32zM224 640c-17.6 0-32-14.4-32-32s14.4-32 32-32h384c17.6 0 32 14.4 32 32s-14.4 32-32 32h-384zM416 512h-192c-17.6 0-32-14.4-32-32s14.4-32 32-32h192c17.6 0 32 14.4 32 32s-14.4 32-32 32zM352 384h-128c-17.6 0-32-14.4-32-32s14.4-32 32-32h128c17.6 0 32 14.4 32 32s-14.4 32-32 32zM352 256h-128c-17.6 0-32-14.4-32-32s14.4-32 32-32h128c17.6 0 32 14.4 32 32s-14.4 32-32 32zM128 896h768v-320h64v320c0 35.2-28.8 64-64 64h-768c-35.2 0-64-28.8-64-64v-896c0-35.2 28.8-64 64-64h192v64h-192v896zM968 256h-328v51.392c0 60.288 65.024 115.264 132.032 115.264 45.824 0 90.816-25.664 113.408-61.184 4.864-7.616 26.56-14.464 39.552-5.504 24.448 16.896 7.808 51.072-8.384 68.096-35.776 37.824-89.088 62.528-144.64 62.528-102.272 0.064-195.968-83.648-195.968-179.2v-51.392h8c-64 0-72-52.672-72-88v-192c0-35.328 39.296-40 74.688-40h384c35.328 0 53.312 4.672 53.312 40v192c0 35.328 8 88-56 88zM960 0h-384v192h384v-192z" />
<glyph unicode="&#xe96b;" glyph-name="export1" d="M800 832h-192c-17.673 0-32-14.327-32-32s14.327-32 32-32v0h104.96l-384-327.68c-6.874-5.905-11.202-14.607-11.202-24.32 0-17.674 14.328-32.002 32.002-32.002 7.961 0 15.243 2.907 20.843 7.717l-0.043-0.036 397.44 339.2v-122.88c0-17.673 14.327-32 32-32s32 14.327 32 32v0 192c0 17.673-14.327 32-32 32v0zM800 448c-17.673 0-32-14.327-32-32v0-288h-576v640h224c17.673 0 32 14.327 32 32s-14.327 32-32 32v0h-224c-35.346 0-64-28.654-64-64v0-640c0-35.346 28.654-64 64-64v0h576c35.346 0 64 28.654 64 64v0 288c0 17.673-14.327 32-32 32v0z" />
<glyph unicode="&#xe96c;" glyph-name="application4extenddetention" d="M386.624 62.656h-192v768h640v-320h-64v256h-512v-640h128v-64zM386.624-1.344h-256v896h768v-384h64v384c0 35.328-25.984 64-61.312 64h-768c-35.328 0-66.688-28.672-66.688-64v-896c0-35.328 31.296-64 66.688-64h253.312v64zM704.064 448c-141.12 0-256-114.816-256-256s114.88-256 256-256c141.184 0 256 114.816 256 256s-114.816 256-256 256zM897.792 192c0-106.816-86.976-193.792-193.792-193.792s-193.728 86.976-193.728 193.792 86.912 193.728 193.728 193.728 193.792-86.912 193.792-193.728zM864.32 211.712h-158.592c-21.824 0-39.68-13.568-39.68-30.144s17.856-30.144 39.68-30.144h158.592c21.824 0 39.68 13.568 39.68 30.144s-17.856 30.144-39.68 30.144zM665.792 357.184v-163.008c0-22.4 13.568-40.768 30.144-40.768s30.144 18.304 30.144 40.768v163.008c0 22.4-13.568 40.768-30.144 40.768s-30.144-18.368-30.144-40.768z" />
<glyph unicode="&#xe96d;" glyph-name="transfer" d="M384 576c0-70.592 57.408-128 128-128s128 57.408 128 128-57.408 128-128 128-128-57.408-128-128zM512 640c35.328 0 64-28.736 64-64s-28.672-64-64-64-64 28.736-64 64 28.672 64 64 64zM1014.656 769.728c-0.064 0.064-0.192 0.064-0.256 0.128l-180.8 180.8c-12.416 12.416-32.832 12.416-45.248 0s-12.416-43.84 0-56.32l115.328-126.336h-775.68c-35.2 0-64-6.656-64-41.856v-224c0-17.6 14.4-32 32-32s32 14.336 32 32v201.856h797.824l-137.408-126.336c-12.416-12.416-12.416-27.264 0-39.744s32.832-9.664 45.248 2.752l180.8 182.144c0.064 0.064 0.192 0.768 0.256 0.832 6.208 6.272 9.28 14.848 9.28 23.040 0 8.256-3.072 16.832-9.344 23.040zM928 425.856c-17.6 0-32-14.4-32-32v-201.856h-128.256c-1.216 140.544-116.224 254.976-257.344 256-140.864 1.024-254.4-111.616-254.4-251.52 0-1.536 0.448-3.008 0.448-4.48h-151.872l137.408 126.336c12.416 12.416 12.416 27.264 0 39.744s-32.768 9.664-45.248-2.752l-180.8-182.144c-0.064-0.064-0.192-0.768-0.256-0.832-6.208-6.272-9.28-14.848-9.28-23.040s3.072-16.64 9.344-22.848c0.064-0.064 0.192-0.192 0.256-0.256l180.8-180.864c12.416-12.416 32.832-12.48 45.248 0s12.416 43.84 0 56.32l-115.328 126.336h764.608c35.2 0 68.672 6.656 68.672 41.856v224c0 17.664-14.4 32-32 32zM320.384 192c-0.064 1.216-0.384 2.368-0.384 3.648 0 105.28 86.208 190.592 192 190.656 106.304 0.064 192-85.824 192-191.936 0-0.832-0.256-1.536-0.256-2.368h-383.36z" />
<glyph unicode="&#xe96e;" glyph-name="filter" d="M384 170.911l64-49.152v433.024c0 7.808 2.816 15.36 8 21.184l282.112 319.872h-618.24l257.024-318.976c4.608-5.696 7.104-12.736 7.104-20.032v-385.92zM460.48 31.455l-128 98.368c-7.872 6.016-12.48 15.424-12.48 25.344v390.336l-291.904 362.304c-7.744 9.536-9.28 22.72-3.968 33.856s16.576 18.176 28.864 18.176h756.032c12.608 0 24-7.36 29.184-18.752 5.184-11.52 3.136-24.96-5.184-34.432l-321.024-363.968v-485.888c0-12.16-6.912-23.296-17.856-28.672-4.48-2.24-9.344-3.328-14.144-3.328-6.912 0-13.824 2.24-19.52 6.656z" />
<glyph unicode="&#xe96f;" glyph-name="approve4detention" d="M224 704h576c17.6 0 32 14.4 32 32s-14.4 32-32 32h-576c-17.6 0-32-14.4-32-32s14.4-32 32-32zM224 576h576c17.6 0 32 14.4 32 32s-14.4 32-32 32h-576c-17.6 0-32-14.4-32-32s14.4-32 32-32zM416 512h-192c-17.6 0-32-14.4-32-32s14.4-32 32-32h192c17.6 0 32 14.4 32 32s-14.4 32-32 32zM352 384h-128c-17.6 0-32-14.4-32-32s14.4-32 32-32h128c17.6 0 32 14.4 32 32s-14.4 32-32 32zM352 256h-128c-17.6 0-32-14.4-32-32s14.4-32 32-32h128c17.6 0 32 14.4 32 32s-14.4 32-32 32zM896 960h-768c-35.2 0-64-28.8-64-64v-896c0-35.2 28.8-64 64-64h192v64h-192v896h768v-320h64v320c0 35.2-28.8 64-64 64zM907.2 215.936l-373.632-218.304c-17.152-9.984-23.872-30.656-14.976-45.824s30.144-19.456 47.296-9.408l373.632 218.304c17.152 9.984 23.872 30.656 14.976 45.824s-30.144 19.456-47.296 9.408zM565.888 442.56l373.632-218.304c17.152-9.984 23.872-30.656 14.976-45.824s-30.144-19.456-47.296-9.408l-373.632 218.304c-17.088 9.984-23.872 30.592-14.976 45.824 8.896 15.168 30.144 19.456 47.296 9.408zM576-36.992c0-14.912-12.096-27.008-27.008-27.008h-9.984c-14.912 0-27.008 12.096-27.008 27.008v457.984c0 14.912 12.096 27.008 27.008 27.008h9.984c14.912 0 27.008-12.096 27.008-27.008v-457.984z" />
<glyph unicode="&#xe970;" glyph-name="collection" d="M384 64h-256v768h640v-256h-64v192h-512v-640h192v-64zM384 0h-320v896h768v-320h64v320c0 35.328-25.984 64-61.312 64h-768c-35.392 0-66.688-28.672-66.688-64v-896c0-35.328 31.296-64 66.688-64h317.312v64zM256 512h64v-128h-64v128zM768 128c109.76 0 192-82.24 192-192h64c0 141.184-114.816 256-256 256s-256-114.816-256-256h64c0 109.76 82.24 192 192 192zM768 448c-88.384 0-160-71.616-160-160s71.616-160 160-160c88.384 0 160 71.616 160 160s-71.616 160-160 160zM768 192c-52.992 0-96 43.008-96 96s43.008 96 96 96c52.992 0 96-43.008 96-96s-43.008-96-96-96z" />
<glyph unicode="&#xe971;" glyph-name="doorGroup" d="M704 64h-512v640h512v-640zM256 128h384v512h-384v-512zM576 448h-64v-128h64v128zM896 960h-640c-35.328 0-64-28.672-64-64v-64h-64c-35.328 0-64-28.672-64-64v-768c0-35.328 28.672-64 64-64h640c35.328 0 64 28.672 64 64v64h64c35.328 0 64 28.672 64 64v768c0 35.328-28.672 64-64 64zM768 0h-640v768h640v-768zM896 128h-64v640c0 35.328-28.672 64-64 64h-512v64h640v-768z" />
<glyph unicode="&#xe972;" glyph-name="Door" d="M768 64h-576v768h576v-768zM256 128h448v640h-448v-640zM640 576h-64v-128h64v128zM832 960h-704c-35.328 0-64-28.672-64-64v-896c0-35.328 28.672-64 64-64h704c35.328 0 64 28.672 64 64v896c0 35.328-28.672 64-64 64zM832 0h-704v896h704v-896z" />
<glyph unicode="&#xe973;" glyph-name="application4detention" d="M384 62.656h-192v768h640v-320h-64v256h-512v-640h128v-64zM384-1.344h-256v896h768v-384h64v384c0 35.328-25.984 64-61.312 64h-768c-35.392 0-66.688-28.672-66.688-64v-896c0-35.328 31.296-64 66.688-64h253.312v64zM907.2 215.936l-373.632-218.304c-17.152-9.984-23.872-30.656-14.976-45.824s30.144-19.456 47.296-9.408l373.632 218.304c17.152 9.984 23.872 30.656 14.976 45.824s-30.144 19.456-47.296 9.408zM565.888 442.56l373.632-218.304c17.152-9.984 23.872-30.656 14.976-45.824s-30.144-19.456-47.296-9.408l-373.632 218.304c-17.088 9.984-23.872 30.592-14.976 45.824 8.896 15.168 30.144 19.456 47.296 9.408zM576-36.992c0-14.912-12.096-27.008-27.008-27.008h-9.984c-14.912 0-27.008 12.096-27.008 27.008v457.984c0 14.912 12.096 27.008 27.008 27.008h9.984c14.912 0 27.008-12.096 27.008-27.008v-457.984zM320 512h64v-128h-64v128z" />
<glyph unicode="&#xe974;" glyph-name="filter-f" d="M460.48 31.401l-128 98.368c-7.872 6.016-12.48 15.424-12.48 25.344v390.336l-291.904 362.304c-7.744 9.536-9.28 22.72-3.968 33.856s16.576 18.176 28.864 18.176h756.032c12.608 0 24-7.36 29.184-18.752 5.184-11.52 3.136-24.96-5.184-34.432l-321.024-363.968v-485.888c0-12.16-6.912-23.296-17.856-28.672-4.48-2.24-9.344-3.328-14.144-3.328-6.912 0-13.824 2.24-19.52 6.656z" />
<glyph unicode="&#xe975;" glyph-name="uni" d="M960 736h-192v128c0 32-32 64-64 64h-640c-32 0-64-32-64-64v-512c0-32 32-64 64-64h128v-128c0-38.4 32-64 64-64h320v-64h-160c-12.8 0-32-12.8-32-32s12.8-32 32-32h384c19.2 0 32 12.8 32 32s-12.8 32-32 32h-160v64h320c38.4 0 64 25.6 64 64v512c0 38.4-25.6 64-64 64zM192 672v-320h-128v512h640v-128h-448c-32 0-64-25.6-64-64zM960 160h-704v64h704v-64zM960 288h-704v384h704v-384z" />
<glyph unicode="&#xe976;" glyph-name="approve4extenddetention" d="M224 704h576c17.6 0 32 14.4 32 32s-14.4 32-32 32h-576c-17.6 0-32-14.4-32-32s14.4-32 32-32zM224 576h576c17.6 0 32 14.4 32 32s-14.4 32-32 32h-576c-17.6 0-32-14.4-32-32s14.4-32 32-32zM416 512h-192c-17.6 0-32-14.4-32-32s14.4-32 32-32h192c17.6 0 32 14.4 32 32s-14.4 32-32 32zM352 384h-128c-17.6 0-32-14.4-32-32s14.4-32 32-32h128c17.6 0 32 14.4 32 32s-14.4 32-32 32zM352 256h-128c-17.6 0-32-14.4-32-32s14.4-32 32-32h128c17.6 0 32 14.4 32 32s-14.4 32-32 32zM901.312 960h-768c-35.2 0-64-28.8-64-64v-896c0-35.2 28.8-64 64-64h192v64h-192v896h768v-320h64v320c0 35.2-28.8 64-64 64zM704.064 448.512c-141.12 0-256-114.816-256-256s114.88-256 256-256c141.184 0 256 114.816 256 256s-114.816 256-256 256zM897.792 192.512c0-106.816-86.976-193.792-193.792-193.792s-193.728 86.976-193.728 193.792 86.912 193.728 193.728 193.728 193.792-86.912 193.792-193.728zM864.32 212.224h-158.592c-21.824 0-39.68-13.568-39.68-30.144s17.856-30.144 39.68-30.144h158.592c21.824 0 39.68 13.568 39.68 30.144 0 16.64-17.856 30.144-39.68 30.144zM665.792 357.696v-163.008c0-22.4 13.568-40.768 30.144-40.768s30.144 18.304 30.144 40.768v163.008c0 22.4-13.568 40.768-30.144 40.768s-30.144-18.368-30.144-40.768z" />
<glyph unicode="&#xe977;" glyph-name="recover" d="M953.6 19.2c-12.8-12.8-32-12.8-44.8 0l-204.8 198.4v-115.2c0-19.2-12.8-32-32-32s-32 12.8-32 32v192c0 19.2 19.2 32 32 32h192c19.2 0 32-12.8 32-32s-12.8-32-32-32h-115.2l198.4-198.4c19.2-12.8 19.2-32 6.4-44.8zM352 838.4c-19.2 0-32-12.8-32-32v-115.2l-204.8 204.8c-12.8 12.8-32 12.8-44.8 0s-12.8-32 0-44.8l204.8-198.4h-115.2c-19.2-6.4-32-19.2-32-38.4s12.8-32 32-32h192c19.2 0 32 12.8 32 32v192c0 19.2-19.2 32-32 32zM352 326.4h-192c-19.2 0-32-12.8-32-32s12.8-32 32-32h115.2l-198.4-198.4c-12.8-12.8-12.8-32 0-44.8s32-12.8 44.8 0l198.4 198.4v-115.2c0-19.2 12.8-32 32-32s32 12.8 32 32v192c0 19.2-12.8 32-32 32zM953.6 896c-12.8 12.8-32 12.8-44.8 0l-204.8-204.8v115.2c0 19.2-12.8 32-32 32s-32-12.8-32-32v-192c0-19.2 19.2-32 32-32h192c19.2 0 32 12.8 32 32s-12.8 32-32 32h-115.2l198.4 198.4c19.2 19.2 19.2 38.4 6.4 51.2z" />
<glyph unicode="&#xe978;" glyph-name="fullscreen" d="M403.2 294.4l-236.8-230.4h115.2c19.2 0 32-12.8 32-32s-12.8-32-32-32h-192c-19.2 0-32 12.8-32 32v192c0 19.2 12.8 32 32 32s32-12.8 32-32v-115.2l236.8 230.4c12.8 12.8 32 12.8 44.8 0s6.4-32 0-44.8zM921.6 256c-19.2 0-32-12.8-32-32v-115.2l-230.4 230.4c-12.8 12.8-32 12.8-44.8 0s-12.8-32 0-44.8l236.8-230.4h-115.2c-19.2 0-32-12.8-32-32s12.8-32 32-32h192c19.2 0 32 12.8 32 32v192c-6.4 19.2-25.6 32-38.4 32zM403.2 601.6l-236.8 230.4h115.2c19.2 0 32 12.8 32 32s-12.8 32-32 32h-192c-19.2 0-32-12.8-32-32v-192c0-19.2 12.8-32 32-32s32 12.8 32 32v115.2l236.8-230.4c12.8-12.8 32-12.8 44.8 0s6.4 32 0 44.8zM921.6 896h-192c-19.2 0-32-12.8-32-32s12.8-32 32-32h115.2l-236.8-230.4c-12.8-12.8-12.8-32 0-44.8s32-12.8 44.8 0l230.4 230.4v-115.2c0-19.2 12.8-32 32-32s32 12.8 32 32v192c6.4 19.2-6.4 32-25.6 32z" />
<glyph unicode="&#xe979;" glyph-name="treezOrganizationCommon" d="M469.333 448v42.667h-85.333c-23.552 0-42.667 19.115-42.667 42.667v213.333c0 23.552 19.115 42.667 42.667 42.667h213.333c23.552 0 42.667-19.115 42.667-42.667v-213.333c0-23.552-19.115-42.667-42.667-42.667h-85.333v-42.667h128c23.552 0 42.667-19.115 42.667-42.667v-85.333h85.333c23.552 0 42.667-19.115 42.667-42.667v-170.667c0-23.552-19.115-42.667-42.667-42.667h-170.667c-23.552 0-42.667 19.115-42.667 42.667v170.667c0 23.552 19.115 42.667 42.667 42.667h42.667v85.333h-298.667v-85.333h42.667c23.552 0 42.667-19.115 42.667-42.667v-170.667c0-23.552-19.115-42.667-42.667-42.667h-170.667c-23.552 0-42.667 19.115-42.667 42.667v170.667c0 23.552 19.115 42.667 42.667 42.667h85.333v85.333c0 23.552 19.115 42.667 42.667 42.667h128z" />
<glyph unicode="&#xe97a;" glyph-name="upper" d="M928 864c0 19.2-12.8 32-32 32h-768c-19.2 0-32-12.8-32-32s12.8-32 32-32h384c-6.4 0-6.4 0-12.8 0 0 0 0 0 0 0s-6.4 0-6.4-6.4c0 0 0 0 0 0l-364.8-364.8c-12.8-12.8-12.8-32 0-44.8s32-12.8 44.8 0l307.2 307.2v-691.2c0-19.2 12.8-32 32-32s32 12.8 32 32v691.2l307.2-307.2c12.8-12.8 32-12.8 44.8 0s12.8 32 0 44.8l-358.4 364.8c0 0 0 0 0 0s-6.4 6.4-6.4 6.4c0 0 0 0 0 0-12.8 0-12.8 0-19.2 0h384c19.2 0 32 12.8 32 32z" />
<glyph unicode="&#xe97b;" glyph-name="application4detain" d="M768 768v-128h64v192h-640v-768l128-64h-192v896h768v-256h64v256c0 35.328-25.984 64-61.312 64h-768c-35.392 0-66.688-28.672-66.688-64v-896c0-35.328 31.296-64 66.688-64h317.312v768l-128 64h448zM384 39.552l-128 64v624.896l128-64v-624.896zM644.032 256h-64c-64 0-68.032-28.672-68.032-64v-192c0-35.328 35.328-64 70.656-64h384c35.328 0 57.344 28.672 57.344 64v192c0 35.328 4.032 64-60.032 64h-319.936zM960 192v-192h-384v192h384zM769.984 510.656c-102.272 0-193.984-83.712-193.984-179.264v-75.392h64v75.392c0 60.288 62.976 115.264 129.984 115.264 45.824 0 89.792-25.664 112.448-61.184 4.864-7.616 26.048-14.464 39.104-5.504 24.448 16.896 8.512 51.072-7.616 68.096-35.776 37.888-88.384 62.592-143.936 62.592z" />
</font>
</defs>
</svg>
